<svg version="1" xmlns="http://www.w3.org/2000/svg" width="346.667" height="346.667" viewBox="0 0 260.000000 260.000000"><path d="M106.5 11.5C59.4 20.2 22 55 9.2 102c-2.4 8.8-2.6 11.1-2.6 30 0 19 .2 21.2 2.6 30.2 11.9 44 44.7 76.7 88.6 88.5 8.9 2.5 11.3 2.7 29.7 2.7 17.4.1 21.1-.2 28.7-2.1 44.8-11.4 78.6-44.6 90.4-89.1 3.2-11.9 4.4-35.5 2.5-48-4.1-26.3-16.1-50-34.7-68.6-17.9-17.9-40.6-29.8-65.2-34.1-10.5-1.8-32.9-1.8-42.7 0zm46.1 18.4c18.7 4.6 35.6 14.2 49.4 28.1 14 13.9 23.4 30.6 28.3 49.9 1.8 7.1 2.1 11.4 2.1 24.6-.1 14-.4 17.2-2.7 25.9-9.9 36.9-38.4 65.3-75.6 75.4-8.5 2.3-11.5 2.6-26.1 2.6-14.8 0-17.6-.3-26.4-2.7-37.1-10-65.3-38.3-75.4-75.6-2.3-8.5-2.6-11.5-2.6-26.1 0-14.6.3-17.6 2.6-26.1 10.9-40.2 42.6-69.6 83.5-77.4 10.7-2 32-1.3 42.9 1.4z"/><path d="M118.8 90.3c-6.4 1.9-15.4 7.4-19.5 12.2-1.9 2.2-4.9 6.9-6.6 10.5-3 6-3.2 7.2-3.2 17 0 10 .2 10.9 3.4 17.5 1.9 3.8 5.5 9 8.1 11.5 2.5 2.6 7.7 6.2 11.5 8.1 6.6 3.2 7.5 3.4 17.5 3.4s10.9-.2 17.5-3.4c8.8-4.4 15.2-10.8 19.6-19.6 3.2-6.6 3.4-7.5 3.4-17.5s-.2-10.9-3.4-17.5c-4.3-8.7-10.8-15.2-19.4-19.5-5.6-2.8-8-3.3-15.4-3.6-5.4-.2-10.6.1-13.5.9z"/></svg>