<svg viewBox="0 0 50 50" xmlns="http://www.w3.org/2000/svg">
  <path d="M32 25a2.25 2.25 0 1 0 0-4.5 2.25 2.25 0 0 0 0 4.5zm0 1.5c-2.41 0-5 1.277-5 2.858V31h10v-1.642c0-1.58-2.59-2.858-5-2.858zM16 25a2.25 2.25 0 1 0 0-4.5 2.25 2.25 0 0 0 0 4.5zm0 1.5c-2.41 0-5 1.277-5 2.858V31h10v-1.642c0-1.58-2.59-2.858-5-2.858z" fill="#aaa" fill-rule="nonzero" mask="url(#b)"></path>
  <path d="M24.003 23A3 3 0 1 0 21 20c0 1.657 1.345 3 3.003 3zM24 25c-3.375 0-7 1.79-7 4v2h14v-2c0-2.21-3.625-4-7-4z" fill="#eee" fill-rule="nonzero" mask="url(#b)"></path>
</svg>