<?xml version="1.0" encoding="utf-8"?>
<!-- Generator: Adobe Illustrator 22.0.1, SVG Export Plug-In . SVG Version: 6.00 Build 0)  -->
<svg version="1.1" id="Layer_1" xmlns="http://www.w3.org/2000/svg" xmlns:xlink="http://www.w3.org/1999/xlink" x="0px" y="0px"
	 viewBox="0 0 512.3 298.6" style="enable-background:new 0 0 512.3 298.6;" xml:space="preserve">
<style type="text/css">
	.st0{fill:#050939;}
</style>
<path class="st0" d="M4.6,282.2c0,5.7,2.1,9.1,6.3,9.1c3.1,0,4.8-1.4,5.6-5.1h1l-0.2,6.2h-1c-0.2-0.4-0.3-0.7-0.8-0.7
	c-0.6,0-2.4,1-5,1c-5.7,0-9.4-3.1-9.4-10.5c0-6.9,4.2-10.5,9.5-10.5c2.3,0,4,0.9,4.7,0.9c0.4,0,0.6-0.2,0.8-0.6H17l0.2,6.1h-1
	c-0.8-3.7-2.5-4.9-5.5-4.9C6.8,273.2,4.6,276,4.6,282.2z M24.5,270.7v8.1l-0.1,1.8h0.1c0.8-1.5,2.4-2.9,4.9-2.9
	c3.1,0,4.4,1.5,4.4,4.9v8.5l1.9,0.2v1.2h-6.6v-1.2l1.9-0.2v-8.4c0-1.9-0.4-3-2.7-3c-2.1,0-3.9,1.3-3.9,4v7.5l2,0.2v1.2h-6.8v-1.2
	l2.1-0.2v-18.9l-2.1-0.2V271L24.5,270.7z M44.5,277.7c3.5,0,5.6,2,5.6,6.3c0,0.4,0,0.8-0.1,1.2h-9.2c0,3.6,1,5.8,4,5.8
	c2,0,3.1-0.8,3.8-2.5l1.3,0.4c-0.8,2.3-2.6,3.8-5.6,3.8c-4.4,0-6.5-3-6.5-7.4C37.7,280.5,40.7,277.7,44.5,277.7z M47.3,283.7v-0.6
	c0-2.6-0.9-4-2.9-4c-2.3,0-3.4,2.1-3.6,4.7h6.5V283.7z M56.3,277.9l0.1,2.7h0.1c0.8-1.4,2.2-2.9,4.9-2.9c2.2,0,3.5,0.9,3.9,2.9
	c0.8-1.4,2.3-2.9,4.8-2.9c3.1,0,4.3,1.5,4.3,4.9v8.5l1.9,0.2v1.2h-6.6v-1.2l1.9-0.2v-8.4c0-1.9-0.3-3-2.5-3c-1.8,0-3.6,1.3-3.6,4
	v7.4l1.9,0.2v1.2h-6.6v-1.2l1.9-0.2v-8.4c0-1.9-0.3-3-2.5-3c-1.9,0-3.6,1.3-3.6,3.8v7.7l2,0.2v1.2H52v-1.2l1.9-0.2v-11.7l-1.9-0.2
	v-1.1L56.3,277.9z M83.1,277.9v13.2l2.2,0.2v1.2h-7.2v-1.2l2.2-0.2v-11.7l-2.2-0.2v-1.1L83.1,277.9z M81.4,271.3
	c1,0,1.8,0.5,1.8,1.8c0,1.1-0.6,1.8-1.8,1.8c-1.4,0-1.8-0.8-1.8-1.7C79.6,272.1,80.1,271.3,81.4,271.3z M87.5,287.6h1.1
	c0.2,2.6,2.3,3.8,4.4,3.8c1.8,0,2.9-0.9,2.9-2.5c0-2-1.7-2.3-3.6-2.7c-2.2-0.4-4.5-0.9-4.5-4c0-2.5,2.1-4.4,4.7-4.4
	c1.1,0,2.1,0.3,2.8,0.7c0.2,0.1,0.4,0.2,0.5,0.2c0.3,0,0.5-0.3,0.5-0.8h1v4.5h-1.1c-0.6-2.2-1.7-3.2-3.7-3.2c-1.5,0-2.6,0.9-2.6,2.2
	c0,1.7,1.6,2,3.5,2.4c2.2,0.4,4.6,1,4.6,4.4c0,2.7-1.6,4.8-4.9,4.8c-1.7,0-2.8-0.5-3.8-1.1c-0.1-0.1-0.2-0.1-0.3-0.1
	c-0.2,0-0.4,0.2-0.5,1.2h-1L87.5,287.6L87.5,287.6z M101.9,279.5h-2.1v-1.4h2.2v-3.8l2.1-0.6h0.7v4.3h3.2v1.4h-3.2v9.4
	c0,1.6,0.4,2.2,1.5,2.2s1.7-0.5,2.2-2.3l1.1,0.3c-0.6,2.5-1.7,3.7-4.2,3.7c-2.1,0-3.4-1-3.4-3.4v-9.8H101.9z M118.6,291.3v1.2h-7.8
	v-1.2l1.9-0.2v-11.7l-1.9-0.2v-1.1l4.2-0.2l0.2,2.5h0.1c0.8-1.5,2-2.7,4.2-2.7c1.6,0,3,1,3,2.7c0,1.6-0.8,2.3-2,2.3s-1.9-0.7-1.9-2
	l0.9-0.4c0-0.1,0.1-0.2,0.1-0.3c0-0.5-0.4-0.7-1-0.7c-1.5,0-3.1,2-3.1,3.7v8.1L118.6,291.3z M123,278h6.4v1.2l-2,0.1l3.4,9.9h0.1
	l3.3-9.9l-2-0.1V278h5.2v1.2l-1.5,0.1l-5.6,15.4c-0.9,2.5-1.7,3.9-4.1,3.9c-1.8,0-3.3-0.9-3.3-2.8c0-1.1,0.7-2,1.9-2
	c0.9,0,1.6,0.6,1.7,1.9l-1.1,0.6c-0.1,0.7,0.4,1,1.2,1c1.2,0,1.5-0.8,2.6-3.8l0.3-0.8l-5.1-13.5l-1.3-0.1L123,278L123,278z
	 M147.2,281.7c1.2,0,2.1,0.6,2.1,2.1c0,1.2-0.7,2.1-2.1,2.1c-1.6,0-2.1-1.1-2.1-2.1C145.2,282.6,145.9,281.7,147.2,281.7z
	 M172.6,272.1l0.2,5.5h-1.1c-0.8-3.5-1.9-4.2-5.5-4.2h-2.6v8h1.5c2.4,0,3-0.9,3.4-3.5h0.9v8.6h-1c-0.5-3.1-1-3.7-3.7-3.7h-1.2v8.3
	h2.6c4.4,0,5.7-1.2,6.3-5.2h1.1l-0.2,6.5h-15.1v-1.1l2.3-0.2v-17.6l-2.3-0.2v-1.1L172.6,272.1L172.6,272.1z M180.3,277.9l0.2,2.8
	h0.1c0.8-1.4,2.4-2.9,5.1-2.9c3.1,0,4.4,1.5,4.4,4.9v8.5l1.9,0.2v1.2h-6.6v-1.2l1.9-0.2v-8.4c0-1.9-0.4-3-2.7-3
	c-2.1,0-3.9,1.3-3.9,3.7v7.8l2,0.2v1.2h-6.6v-1.2l1.9-0.2v-11.7l-1.9-0.2v-1.1L180.3,277.9z M205.6,277.1c0.3,0,0.6,0.1,0.9,0.2v1.6
	l-2.7,0.4c0.8,0.8,1.5,1.9,1.5,3.5c0,3.3-2.4,5.2-5.4,5.2c-0.7,0-1.1-0.1-1.7-0.2c-0.9,0.8-1.4,1.3-1.4,1.7c0,0.6,0.4,0.6,1.2,0.6
	h2.7c3.3,0,5.8,0.5,5.8,3.8c0,2.9-1.8,4.6-7.4,4.6c-4.4,0-5.9-1.2-5.9-3.1c0-1.6,1-2.4,2-3c-0.7-0.3-1-0.9-1-1.6
	c0-1.3,1.2-2.1,2.6-3.3c-1.8-0.6-2.8-2.4-2.8-4.4c0-2.9,1.9-5.5,5.7-5.5c1.3,0,2.4,0.3,3.1,0.8C203.6,277.8,204.6,277.1,205.6,277.1
	z M196.3,292.9c-0.4,0.6-0.7,1.2-0.7,2c0,1.4,0.7,2.2,4.3,2.2c2.8,0,4.5-0.6,4.5-2.4c0-1.6-1.5-1.7-4.2-1.7h-3.9V292.9z
	 M199.8,286.7c1.5,0,2.7-0.9,2.7-3.9c0-2.8-1.1-3.8-2.7-3.8c-1.5,0-2.8,1-2.8,3.9C196.9,285.8,198.1,286.7,199.8,286.7z
	 M213.2,277.9v13.2l2.2,0.2v1.2h-7.2v-1.2l2.2-0.2v-11.7l-2.2-0.2v-1.1L213.2,277.9z M211.5,271.3c1,0,1.8,0.5,1.8,1.8
	c0,1.1-0.6,1.8-1.8,1.8c-1.4,0-1.8-0.8-1.8-1.7C209.7,272.1,210.3,271.3,211.5,271.3z M221.4,277.9l0.2,2.8h0.1
	c0.8-1.4,2.4-2.9,5.1-2.9c3.1,0,4.4,1.5,4.4,4.9v8.5l1.9,0.2v1.2h-6.6v-1.2l1.9-0.2v-8.4c0-1.9-0.4-3-2.7-3c-2.1,0-3.9,1.3-3.9,3.7
	v7.8l2,0.2v1.2h-6.6v-1.2l1.9-0.2v-11.7l-1.9-0.2v-1.1L221.4,277.9z M241.8,277.7c3.5,0,5.6,2,5.6,6.3c0,0.4,0,0.8-0.1,1.2h-9.2
	c0,3.6,1,5.8,4,5.8c2,0,3.1-0.8,3.8-2.5l1.3,0.4c-0.8,2.3-2.6,3.8-5.6,3.8c-4.4,0-6.5-3-6.5-7.4C235.1,280.5,238,277.7,241.8,277.7z
	 M244.6,283.7v-0.6c0-2.6-0.9-4-2.9-4c-2.3,0-3.4,2.1-3.6,4.7h6.5V283.7z M256.5,277.7c3.5,0,5.6,2,5.6,6.3c0,0.4,0,0.8-0.1,1.2
	h-9.2c0,3.6,1,5.8,4,5.8c2,0,3.1-0.8,3.8-2.5l1.3,0.4c-0.8,2.3-2.6,3.8-5.6,3.8c-4.4,0-6.5-3-6.5-7.4
	C249.7,280.5,252.7,277.7,256.5,277.7z M259.3,283.7v-0.6c0-2.6-0.9-4-2.9-4c-2.3,0-3.4,2.1-3.6,4.7h6.5V283.7z M271.9,291.3v1.2
	h-7.8v-1.2l1.9-0.2v-11.7l-1.9-0.2v-1.1l4.2-0.2l0.2,2.5h0.1c0.8-1.5,2-2.7,4.2-2.7c1.6,0,3,1,3,2.7c0,1.6-0.8,2.3-2,2.3
	s-1.9-0.7-1.9-2l0.9-0.4c0-0.1,0.1-0.2,0.1-0.3c0-0.5-0.4-0.7-1-0.7c-1.5,0-3.1,2-3.1,3.7v8.1L271.9,291.3z M282.1,277.9v13.2
	l2.2,0.2v1.2h-7.2v-1.2l2.2-0.2v-11.7l-2.2-0.2v-1.1L282.1,277.9z M280.4,271.3c1,0,1.8,0.5,1.8,1.8c0,1.1-0.6,1.8-1.8,1.8
	c-1.4,0-1.8-0.8-1.8-1.7C278.6,272.1,279.2,271.3,280.4,271.3z M290.3,277.9l0.2,2.8h0.1c0.8-1.4,2.4-2.9,5.1-2.9
	c3.1,0,4.4,1.5,4.4,4.9v8.5l1.9,0.2v1.2h-6.6v-1.2l1.9-0.2v-8.4c0-1.9-0.4-3-2.7-3c-2.1,0-3.9,1.3-3.9,3.7v7.8l2,0.2v1.2h-6.6v-1.2
	l1.9-0.2v-11.7l-1.9-0.2v-1.1L290.3,277.9z M315.7,277.1c0.3,0,0.6,0.1,0.9,0.2v1.6l-2.7,0.4c0.8,0.8,1.5,1.9,1.5,3.5
	c0,3.3-2.4,5.2-5.4,5.2c-0.7,0-1.1-0.1-1.7-0.2c-0.9,0.8-1.4,1.3-1.4,1.7c0,0.6,0.4,0.6,1.2,0.6h2.7c3.3,0,5.8,0.5,5.8,3.8
	c0,2.9-1.8,4.6-7.4,4.6c-4.4,0-5.9-1.2-5.9-3.1c0-1.6,1-2.4,2-3c-0.7-0.3-1-0.9-1-1.6c0-1.3,1.2-2.1,2.6-3.3
	c-1.8-0.6-2.8-2.4-2.8-4.4c0-2.9,1.9-5.5,5.7-5.5c1.3,0,2.4,0.3,3.1,0.8C313.7,277.8,314.7,277.1,315.7,277.1z M306.4,292.9
	c-0.4,0.6-0.7,1.2-0.7,2c0,1.4,0.7,2.2,4.3,2.2c2.8,0,4.5-0.6,4.5-2.4c0-1.6-1.5-1.7-4.2-1.7h-3.9V292.9z M309.9,286.7
	c1.5,0,2.7-0.9,2.7-3.9c0-2.8-1.1-3.8-2.7-3.8c-1.5,0-2.8,1-2.8,3.9C307,285.8,308.2,286.7,309.9,286.7z M327.2,281.7
	c1.2,0,2.1,0.6,2.1,2.1c0,1.2-0.7,2.1-2.1,2.1c-1.6,0-2.1-1.1-2.1-2.1C325.1,282.6,325.8,281.7,327.2,281.7z M346.6,272.1v1.1
	l-3.1,0.3v17.6h1.8c4.4,0,5.9-0.8,6.6-5.2h1l-0.3,6.5h-14.5v-1.1l2.3-0.2v-17.6l-2.3-0.2v-1.2L346.6,272.1L346.6,272.1z M360,277.9
	v13.2l2.2,0.2v1.2H355v-1.2l2.2-0.2v-11.7l-2.2-0.2v-1.1L360,277.9z M358.3,271.3c1,0,1.8,0.5,1.8,1.8c0,1.1-0.6,1.8-1.8,1.8
	c-1.4,0-1.8-0.8-1.8-1.7C356.5,272.1,357,271.3,358.3,271.3z M372.6,279.5h-3.8v11.7l3.5,0.2v1.2h-8.5v-1.2l2.2-0.2v-11.7h-2.3v-1.4
	h2.3v-1.4c0-4,1.8-6.7,5.6-6.7c2.2,0,3.6,1.1,3.6,2.8c0,1.2-0.6,2-1.8,2s-1.7-0.7-1.7-1.8l0.8-0.3c0.1-0.2,0.1-0.4,0.1-0.6
	c0-0.7-0.5-0.9-1.3-0.9c-2.3,0-2.6,2-2.6,4v2.9h3.8L372.6,279.5L372.6,279.5z M380.6,277.7c3.5,0,5.6,2,5.6,6.3c0,0.4,0,0.8-0.1,1.2
	h-9.2c0,3.6,1,5.8,4,5.8c2,0,3.1-0.8,3.8-2.5l1.3,0.4c-0.8,2.3-2.6,3.8-5.6,3.8c-4.4,0-6.5-3-6.5-7.4
	C373.8,280.5,376.7,277.7,380.6,277.7z M383.3,283.7v-0.6c0-2.6-0.9-4-2.9-4c-2.3,0-3.4,2.1-3.6,4.7h6.5V283.7z M406.2,287.5
	c0-2.8-1.9-3.3-5.6-4.2c-3.4-0.9-5.5-1.9-5.5-5.6c0-2.9,1.9-5.9,6.2-5.9c2.3,0,3.4,0.9,4.1,0.9c0.4,0,0.6-0.2,0.8-0.6h0.9l0.2,5.9
	h-1.1c-0.9-3.6-2.4-4.8-4.9-4.8c-2.4,0-4,1.2-4,3.2c0,2.3,1.9,3.1,4.5,3.8c3.2,0.8,6.5,1.7,6.5,6.1c0,3.7-2.3,6.5-6.8,6.5
	c-2.7,0-3.8-0.8-4.7-0.8c-0.4,0-0.5,0.4-0.8,0.9h-0.9l-0.3-6.7h1.1c0.9,3.3,1.9,5.3,5.5,5.3C404.5,291.4,406.2,289.9,406.2,287.5z
	 M413.9,285.1c0,3.8,1.1,6,4.1,6c2.1,0,3.1-1.4,3.6-2.6l1.3,0.4c-0.4,1.3-1.8,3.9-5.5,3.9c-4.3,0-6.5-2.8-6.5-7.1c0-5.2,2.9-8,7.1-8
	c2.9,0,5,1.6,5,3.9c0,1.7-1,2.4-2.1,2.4c-1,0-1.9-0.6-1.9-1.7c0-0.3,0.1-0.8,0.3-1.3h1c0.1-0.2,0.1-0.4,0.1-0.6c0-1-0.8-1.3-2.3-1.3
	C415.3,279.1,413.9,281.2,413.9,285.1z M429.8,277.9v13.2l2.2,0.2v1.2h-7.2v-1.2l2.2-0.2v-11.7l-2.2-0.2v-1.1L429.8,277.9z
	 M428.1,271.3c1,0,1.8,0.5,1.8,1.8c0,1.1-0.6,1.8-1.8,1.8c-1.4,0-1.8-0.8-1.8-1.7C426.3,272.1,426.8,271.3,428.1,271.3z
	 M440.5,277.7c3.5,0,5.6,2,5.6,6.3c0,0.4,0,0.8-0.1,1.2h-9.2c0,3.6,1,5.8,4,5.8c2,0,3.1-0.8,3.8-2.5l1.3,0.4
	c-0.8,2.3-2.6,3.8-5.6,3.8c-4.4,0-6.5-3-6.5-7.4C433.8,280.5,436.7,277.7,440.5,277.7z M443.3,283.7v-0.6c0-2.6-0.9-4-2.9-4
	c-2.3,0-3.4,2.1-3.6,4.7h6.5V283.7z M452.5,277.9l0.2,2.8h0.1c0.8-1.4,2.4-2.9,5.1-2.9c3.1,0,4.4,1.5,4.4,4.9v8.5l1.9,0.2v1.2h-6.6
	v-1.2l1.9-0.2v-8.4c0-1.9-0.4-3-2.7-3c-2.1,0-3.9,1.3-3.9,3.7v7.8l2,0.2v1.2h-6.6v-1.2l1.9-0.2v-11.7l-1.9-0.2v-1.1L452.5,277.9z
	 M469.2,285.1c0,3.8,1.1,6,4.1,6c2.1,0,3.1-1.4,3.6-2.6l1.3,0.4c-0.4,1.3-1.8,3.9-5.5,3.9c-4.3,0-6.5-2.8-6.5-7.1c0-5.2,2.9-8,7.1-8
	c2.9,0,5,1.6,5,3.9c0,1.7-1,2.4-2.1,2.4c-1,0-1.9-0.6-1.9-1.7c0-0.3,0.1-0.8,0.3-1.3h1c0.1-0.2,0.1-0.4,0.1-0.6c0-1-0.8-1.3-2.3-1.3
	C470.6,279.1,469.2,281.2,469.2,285.1z M487.1,277.7c3.5,0,5.6,2,5.6,6.3c0,0.4,0,0.8-0.1,1.2h-9.2c0,3.6,1,5.8,4,5.8
	c2,0,3.1-0.8,3.8-2.5l1.3,0.4c-0.8,2.3-2.6,3.8-5.6,3.8c-4.4,0-6.5-3-6.5-7.4C480.4,280.5,483.3,277.7,487.1,277.7z M489.9,283.7
	v-0.6c0-2.6-0.9-4-2.9-4c-2.3,0-3.4,2.1-3.6,4.7h6.5V283.7z M495.3,287.6h1.1c0.2,2.6,2.3,3.8,4.4,3.8c1.8,0,2.9-0.9,2.9-2.5
	c0-2-1.7-2.3-3.6-2.7c-2.2-0.4-4.5-0.9-4.5-4c0-2.5,2.1-4.4,4.7-4.4c1.1,0,2.1,0.3,2.8,0.7c0.2,0.1,0.4,0.2,0.5,0.2
	c0.3,0,0.5-0.3,0.5-0.8h1v4.5H504c-0.6-2.2-1.7-3.2-3.7-3.2c-1.5,0-2.6,0.9-2.6,2.2c0,1.7,1.6,2,3.5,2.4c2.2,0.4,4.6,1,4.6,4.4
	c0,2.7-1.6,4.8-4.9,4.8c-1.7,0-2.8-0.5-3.8-1.1c-0.1-0.1-0.2-0.1-0.3-0.1c-0.2,0-0.4,0.2-0.5,1.2h-1L495.3,287.6L495.3,287.6z
	 M28.3,50.9c0-6.6-4.5-7.8-13.4-10.1C6.8,38.7,1.8,36.3,1.8,27.5c0-7,4.7-14.2,14.7-14.2c5.4,0,8.1,2.1,9.8,2.1c1,0,1.3-0.6,1.8-1.5
	h2.1l0.5,14.2h-2.6c-2.2-8.7-5.8-11.5-11.7-11.5c-5.7,0-9.4,3-9.4,7.6c0,5.6,4.7,7.4,10.8,9c7.6,2,15.5,4.1,15.5,14.6
	c0,8.9-5.6,15.6-16.2,15.6c-6.5,0-9.1-2-11.2-2c-1,0-1.2,0.8-1.8,2.2H1.9l-0.7-16h2.6c2.1,7.8,4.4,12.6,13.1,12.6
	C24.2,60.2,28.3,56.6,28.3,50.9z M46.7,45.1c0,9,2.6,14.3,9.8,14.3c5.1,0,7.5-3.3,8.7-6.2l3.1,1c-1,3.2-4.4,9.2-13.1,9.2
	c-10.2,0-15.6-6.6-15.6-17c0-12.5,7-19,16.9-19c6.9,0,11.9,3.7,11.9,9.4c0,4.1-2.4,5.7-5,5.7c-2.4,0-4.4-1.5-4.4-4
	c0-0.8,0.1-2,0.7-3.1h2.4c0.1-0.6,0.2-1,0.2-1.5c0-2.3-1.9-3.2-5.5-3.2C50,30.7,46.7,35.9,46.7,45.1z M84.7,27.9v31.6L90,60v2.8
	H72.9V60l5.2-0.5V31.6l-5.2-0.5v-2.7L84.7,27.9z M80.6,12.1c2.5,0,4.4,1.1,4.4,4.2c0,2.7-1.5,4.2-4.3,4.2c-3.3,0-4.4-1.9-4.4-4.2
	S77.6,12.1,80.6,12.1z M110.3,27.5c8.3,0,13.4,4.8,13.4,15.1c0,0.9-0.1,1.9-0.1,2.9h-22.1c0,8.5,2.5,13.9,9.6,13.9
	c4.8,0,7.3-1.9,9-6l3.1,1c-1.8,5.4-6.2,9.1-13.4,9.1c-10.6,0-15.5-7.1-15.5-17.6C94.2,34.2,101.2,27.5,110.3,27.5z M116.9,41.8v-1.5
	c0-6.3-2.2-9.6-6.9-9.6c-5.4,0-8.2,5.1-8.6,11.1H116.9z M138.9,27.9l0.5,6.6h0.2c1.9-3.4,5.8-7,12.1-7c7.4,0,10.6,3.7,10.6,11.8
	v20.2l4.6,0.5v2.8h-15.8V60l4.6-0.5V39.3c0-4.6-1-7.2-6.4-7.2c-4.9,0-9.2,3.2-9.2,8.8v18.6l4.7,0.5v2.8H129V60l4.5-0.5V31.6
	l-4.5-0.5v-2.7L138.9,27.9z M178.8,45.1c0,9,2.6,14.3,9.8,14.3c5.1,0,7.5-3.3,8.7-6.2l3.1,1c-1,3.2-4.4,9.2-13.1,9.2
	c-10.2,0-15.6-6.6-15.6-17c0-12.5,7-19,16.9-19c6.9,0,11.9,3.7,11.9,9.4c0,4.1-2.4,5.7-5,5.7c-2.4,0-4.4-1.5-4.4-4
	c0-0.8,0.1-2,0.7-3.1h2.4c0.1-0.6,0.2-1,0.2-1.5c0-2.3-1.9-3.2-5.5-3.2C182.1,30.7,178.8,35.9,178.8,45.1z M221.6,27.5
	c8.3,0,13.4,4.8,13.4,15.1c0,0.9-0.1,1.9-0.1,2.9h-22.1c0,8.5,2.5,13.9,9.6,13.9c4.8,0,7.3-1.9,9-6l3.1,1c-1.8,5.4-6.2,9.1-13.4,9.1
	c-10.6,0-15.5-7.1-15.5-17.6C205.6,34.2,212.5,27.5,221.6,27.5z M228.3,41.8v-1.5c0-6.3-2.2-9.6-6.9-9.6c-5.4,0-8.2,5.1-8.6,11.1
	H228.3z M12.8,109.7h21.6V91.1l-5.5-0.5v-2.8h18.3v2.7L41.7,91v42.1l5.5,0.6v2.7H28.9v-2.7l5.5-0.6v-19.6H12.8v19.7l5.5,0.6v2.7H0.1
	v-2.7l5.5-0.6V91.1l-5.5-0.5v-2.8h18.3v2.7L12.9,91v18.7H12.8z M64.3,101.7v31.5l5.3,0.5v2.8H52.5v-2.8l5.2-0.5v-27.9l-5.2-0.5v-2.7
	L64.3,101.7z M60.2,85.9c2.5,0,4.4,1.1,4.4,4.2c0,2.7-1.5,4.2-4.3,4.2c-3.3,0-4.4-1.9-4.4-4.2C55.9,87.7,57.2,85.9,60.2,85.9z
	 M74.7,124.8h2.7c0.4,6.2,5.5,9,10.4,9c4.4,0,6.9-2.1,6.9-6c0-4.7-4.1-5.6-8.5-6.4c-5.2-1-10.8-2.1-10.8-9.6c0-6,4.9-10.6,11.3-10.6
	c2.7,0,5,0.6,6.7,1.6c0.5,0.3,0.9,0.4,1.2,0.4c0.8,0,1.1-0.8,1.2-2h2.3V112h-2.7c-1.3-5.1-4.2-7.6-8.7-7.6c-3.6,0-6.3,2.2-6.3,5.1
	c0,4,3.9,4.7,8.4,5.6c5.3,1,11,2.4,11,10.5c0,6.4-3.9,11.5-11.7,11.5c-4,0-6.8-1.2-9.1-2.6c-0.3-0.1-0.6-0.3-0.8-0.3
	c-0.6,0-0.9,0.5-1.1,2.8h-2.4L74.7,124.8L74.7,124.8z M109.2,105.4H104V102h5.2v-9l5-1.4h1.6v10.3h7.6v3.4h-7.6v22.6
	c0,3.8,0.9,5.3,3.6,5.3c2.6,0,4.2-1.2,5.3-5.5l2.6,0.7c-1.4,5.9-4.2,8.7-10.1,8.7c-5,0-8.1-2.4-8.1-8.2L109.2,105.4L109.2,105.4z
	 M147,101.2c10.6,0,15.7,7.4,15.7,17.9c0,10.8-6,18.1-16.1,18.1c-10.4,0-15.8-7.3-15.8-17.8C130.8,108.6,137.1,101.2,147,101.2z
	 M146.6,104.5c-7.1,0-8.6,6.8-8.6,14.4c0,7.8,1.6,15,8.8,15c6.9,0,8.6-6.8,8.6-14.5C155.5,111.8,153.9,104.5,146.6,104.5z
	 M186.5,133.7v2.8h-18.6v-2.8l4.5-0.5v-27.9l-4.5-0.5v-2.7l10-0.4l0.5,6h0.3c2-3.6,4.9-6.5,10-6.5c3.8,0,7.1,2.3,7.1,6.5
	c0,3.7-1.9,5.4-4.9,5.4c-2.8,0-4.5-1.7-4.4-4.7l2.2-0.9c0.1-0.3,0.1-0.6,0.1-0.8c0-1.2-1-1.7-2.3-1.7c-3.7,0-7.5,4.8-7.5,8.8v19.4
	L186.5,133.7z M198.7,102H214v2.8l-4.8,0.3l8.1,23.7h0.3l8-23.7l-4.8-0.3V102h12.4v2.8l-3.5,0.3l-13.3,36.8c-2.2,6-4,9.3-9.8,9.3
	c-4.2,0-8-2.2-8-6.6c0-2.6,1.6-4.9,4.6-4.9c2.2,0,3.9,1.5,4,4.6l-2.6,1.5c-0.3,1.7,0.9,2.4,2.8,2.4c2.9,0,3.7-1.9,6.1-9l0.6-1.9
	l-12.2-32.1l-3.1-0.3V102H198.7z M5.5,164.9L0,164.4v-2.8h18.3v2.7l-5.5,0.5v42.1l5.5,0.5v2.8H0.1v-2.7l5.5-0.5v-42.1H5.5z
	 M33.9,175.4l0.5,6.6h0.2c1.9-3.4,5.8-7,12.1-7c7.4,0,10.6,3.7,10.6,11.8V207l4.6,0.5v2.8H46.1v-2.8l4.6-0.5v-20.1
	c0-4.6-1-7.2-6.4-7.2c-4.9,0-9.2,3.2-9.2,8.8V207l4.7,0.5v2.8H24v-2.8l4.5-0.5v-27.9l-4.5-0.5v-2.7L33.9,175.4z M67.2,198.5h2.7
	c0.4,6.2,5.5,9,10.4,9c4.4,0,6.9-2.1,6.9-6c0-4.7-4.1-5.6-8.5-6.4c-5.2-1-10.8-2.1-10.8-9.6c0-6,4.9-10.6,11.3-10.6
	c2.7,0,5,0.6,6.7,1.6c0.5,0.3,0.9,0.4,1.2,0.4c0.8,0,1.1-0.8,1.2-2h2.3v10.8h-2.7c-1.3-5.1-4.2-7.6-8.7-7.6c-3.6,0-6.3,2.2-6.3,5.1
	c0,4,3.9,4.7,8.4,5.6c5.3,1,11,2.4,11,10.6c0,6.4-3.9,11.5-11.7,11.5c-4,0-6.8-1.2-9.1-2.6c-0.3-0.1-0.6-0.3-0.8-0.3
	c-0.6,0-0.9,0.5-1.1,2.8h-2.4L67.2,198.5L67.2,198.5z M101.7,179.1h-5.2v-3.4h5.2v-9l5-1.4h1.6v10.3h7.6v3.4h-7.6v22.6
	c0,3.8,0.9,5.3,3.6,5.3c2.6,0,4.2-1.2,5.3-5.5l2.6,0.7c-1.4,5.9-4.2,8.7-10.1,8.7c-5,0-8.1-2.4-8.1-8.2L101.7,179.1L101.7,179.1z
	 M135.1,175.4v31.5l5.3,0.5v2.8h-17.1v-2.8l5.2-0.5V179l-5.2-0.5v-2.7L135.1,175.4z M131,159.6c2.5,0,4.4,1.1,4.4,4.2
	c0,2.7-1.5,4.2-4.3,4.2c-3.3,0-4.4-1.9-4.4-4.2C126.7,161.5,128,159.6,131,159.6z M149.1,179.1h-5.2v-3.4h5.2v-9l5-1.4h1.6v10.3h7.6
	v3.4h-7.6v22.6c0,3.8,0.9,5.3,3.6,5.3c2.6,0,4.2-1.2,5.3-5.5l2.6,0.7c-1.4,5.9-4.2,8.7-10.1,8.7c-5,0-8.1-2.4-8.1-8.2L149.1,179.1
	L149.1,179.1z M180.5,199.2c0,4.6,1.2,7.1,6.3,7.1c4.9,0,9-3.1,9-9.4V179l-4.7-0.5v-2.7l11.3-0.4v31.5l4.5,0.5v2.8h-10.1l-0.3-5.9
	h-0.3c-1.9,3.4-5.7,6.7-11.7,6.7c-7.4,0-10.7-3.7-10.7-11.8v-20.1l-4.6-0.5v-2.7l11.2-0.4v23.7H180.5z M214.7,179.1h-5.2v-3.4h5.2
	v-9l5-1.4h1.6v10.3h7.6v3.4h-7.6v22.6c0,3.8,0.9,5.3,3.6,5.3c2.6,0,4.2-1.2,5.3-5.5l2.6,0.7c-1.4,5.9-4.2,8.7-10.1,8.7
	c-5,0-8.1-2.4-8.1-8.2v-23.5H214.7z M252.3,174.9c8.3,0,13.4,4.8,13.4,15.1c0,0.9-0.1,1.9-0.1,2.9h-22.1c0,8.5,2.5,13.9,9.6,13.9
	c4.8,0,7.3-1.9,9-6l3.1,1c-1.8,5.4-6.2,9.1-13.4,9.1c-10.6,0-15.5-7.1-15.5-17.6C236.3,181.7,243.2,174.9,252.3,174.9z M259,189.2
	v-1.5c0-6.3-2.2-9.6-6.9-9.6c-5.4,0-8.2,5.1-8.6,11.1H259z M506.8,248.4L506.8,248.4c0-0.6-0.6-1-1.2-1H1.5c-0.7,0-1.2,0.5-1.2,1
	l0,0c0,0.6,0.6,1.1,1.2,1.1h504.1C506.3,249.4,506.8,249,506.8,248.4z M511.2,119.5l-80.8-6.1c0-0.4,0.1-0.7,0.1-1.1
	c0-0.4,0-0.8-0.1-1.1l80.8-6.1c0.6,0,1-0.5,1-1.1v-0.1c0-0.6-0.6-1.1-1.2-1l-80.8,6.1c-0.1-0.8-0.2-1.5-0.3-2.2l79-18
	c0.5-0.1,0.9-0.6,0.9-1.1c0-0.1,0-0.2,0-0.3c-0.1-0.6-0.7-1-1.4-0.8l-79,18c-0.2-0.7-0.4-1.5-0.7-2.2l75.4-29.6
	c0.4-0.2,0.7-0.6,0.7-1.1c0-0.1,0-0.3-0.1-0.4c-0.2-0.6-0.9-0.9-1.5-0.6l-75.4,29.6c-0.3-0.7-0.6-1.4-1-2l70.1-40.5
	c0.4-0.2,0.6-0.6,0.6-1c0-0.2,0-0.4-0.2-0.6c-0.3-0.5-1-0.7-1.5-0.4l-70,40.4c-0.4-0.6-0.8-1.3-1.3-1.9l63.3-50.5
	c0.3-0.2,0.4-0.6,0.4-0.9c0-0.2-0.1-0.5-0.2-0.7c-0.4-0.5-1.1-0.6-1.6-0.2l-63.3,50.5c-0.5-0.6-1-1.1-1.5-1.7l55-59.3
	c0.2-0.2,0.3-0.5,0.3-0.8s-0.1-0.6-0.4-0.8c-0.5-0.4-1.2-0.4-1.6,0.1l-55.1,59.4c-0.6-0.5-1.2-1-1.8-1.4l45.6-66.9
	c0.1-0.2,0.2-0.4,0.2-0.6c0-0.4-0.2-0.7-0.5-0.9c-0.5-0.3-1.2-0.2-1.6,0.3l-45.6,66.9c-0.6-0.4-1.3-0.8-2-1.2l35.1-73
	c0.1-0.2,0.1-0.3,0.1-0.5c0-0.4-0.2-0.8-0.6-1c-0.6-0.3-1.2,0-1.5,0.5l-35.1,73c-0.7-0.3-1.4-0.6-2.1-0.8l23.9-77.4
	c0-0.1,0.1-0.2,0.1-0.3c0-0.5-0.3-0.9-0.8-1.1c-0.6-0.2-1.2,0.1-1.4,0.7l-23.9,77.4c-0.7-0.2-1.5-0.4-2.2-0.5l12.1-80.1
	c0-0.1,0-0.1,0-0.2c0-0.5-0.4-1-1-1.1c-0.6-0.1-1.2,0.3-1.3,0.9l-12.1,80.1c-0.7-0.1-1.5-0.1-2.3-0.1v-81c0-0.6-0.5-1.1-1.1-1.1
	c-0.6,0-1.1,0.5-1.1,1.1v81c-0.8,0-1.5,0.1-2.3,0.1L384.5,2.1c-0.1-0.6-0.7-1-1.3-0.9s-1,0.6-1,1.1c0,0.1,0,0.1,0,0.2l12.1,80.1
	c-0.7,0.1-1.5,0.3-2.2,0.5L368.2,5.7c-0.2-0.6-0.8-0.9-1.4-0.7c-0.5,0.2-0.8,0.6-0.8,1.1c0,0.1,0,0.2,0.1,0.3L390,83.8
	c-0.7,0.3-1.4,0.5-2.1,0.8l-35.1-73c-0.3-0.6-1-0.8-1.5-0.5c-0.4,0.2-0.6,0.6-0.6,1c0,0.2,0,0.3,0.1,0.5l35.1,73
	c-0.7,0.4-1.3,0.7-2,1.2l-45.6-66.9c-0.4-0.5-1.1-0.6-1.6-0.3c-0.3,0.2-0.5,0.6-0.5,0.9c0,0.2,0.1,0.4,0.2,0.6L382,88
	c-0.6,0.5-1.2,0.9-1.8,1.4L325.1,30c-0.4-0.5-1.1-0.5-1.6-0.1c-0.2,0.2-0.4,0.5-0.4,0.8s0.1,0.5,0.3,0.8l55.1,59.4
	c-0.5,0.5-1,1.1-1.5,1.7l-63.3-50.5c-0.5-0.4-1.2-0.3-1.6,0.2c-0.2,0.2-0.2,0.5-0.2,0.7c0,0.3,0.1,0.7,0.4,0.9l63.3,50.5
	c-0.4,0.6-0.9,1.2-1.3,1.9l-70.1-40.5c-0.5-0.3-1.2-0.1-1.5,0.4c-0.1,0.2-0.2,0.4-0.2,0.6c0,0.4,0.2,0.8,0.6,1l70.1,40.5
	c-0.4,0.7-0.7,1.3-1,2l-75.4-29.6c-0.6-0.2-1.2,0.1-1.5,0.6c-0.1,0.1-0.1,0.3-0.1,0.4c0,0.5,0.3,0.9,0.7,1.1l75.4,29.6
	c-0.2,0.7-0.5,1.4-0.7,2.2l-79-18c-0.6-0.1-1.2,0.2-1.4,0.8c0,0.1,0,0.2,0,0.3c0,0.5,0.4,1,0.9,1.1l79,18c-0.1,0.7-0.3,1.5-0.3,2.2
	l-80.8-6.1c-0.6-0.1-1.2,0.4-1.2,1v0.1c0,0.6,0.5,1.1,1,1.1l80.8,6.1c0,0.4-0.1,0.8-0.1,1.1c0,0.4,0,0.8,0.1,1.1l-80.8,6.1
	c-0.6,0-1,0.5-1,1.1v0.1c0,0.6,0.6,1.1,1.2,1l80.8-6.1c0.1,0.8,0.2,1.5,0.3,2.2l-79,18c-0.5,0.1-0.9,0.6-0.9,1.1c0,0.1,0,0.2,0,0.3
	c0.1,0.6,0.7,1,1.4,0.8l79-18c0.2,0.7,0.4,1.5,0.7,2.2l-75.4,29.6c-0.4,0.2-0.7,0.6-0.7,1.1c0,0.1,0,0.3,0.1,0.4
	c0.2,0.6,0.9,0.9,1.5,0.6l75.4-29.6c0.3,0.7,0.6,1.4,1,2l-70.1,40.5c-0.4,0.2-0.6,0.6-0.6,1c0,0.2,0,0.4,0.2,0.6
	c0.3,0.5,1,0.7,1.5,0.4l70.1-40.5c0.4,0.6,0.8,1.3,1.3,1.9l-63.3,50.5c-0.3,0.2-0.4,0.6-0.4,0.9c0,0.2,0.1,0.5,0.2,0.7
	c0.4,0.5,1.1,0.6,1.6,0.2L377,132c0.5,0.6,1,1.1,1.5,1.7l-55.1,59.4c-0.2,0.2-0.3,0.5-0.3,0.8c0,0.3,0.1,0.6,0.4,0.8
	c0.5,0.4,1.2,0.4,1.6-0.1l55.1-59.4c0.6,0.5,1.2,1,1.8,1.4l-45.6,66.9c-0.1,0.2-0.2,0.4-0.2,0.6c0,0.4,0.2,0.7,0.5,0.9
	c0.5,0.4,1.2,0.2,1.6-0.3l45.6-66.9c0.6,0.4,1.3,0.8,2,1.2l-35.1,73c-0.1,0.2-0.1,0.3-0.1,0.5c0,0.4,0.2,0.8,0.6,1
	c0.6,0.3,1.2,0,1.5-0.5l35.1-73c0.7,0.3,1.4,0.6,2.1,0.8l-23.9,77.4c0,0.1-0.1,0.2-0.1,0.3c0,0.5,0.3,0.9,0.8,1.1
	c0.6,0.2,1.2-0.2,1.4-0.7l23.9-77.4c0.7,0.2,1.5,0.4,2.2,0.5l-12.1,80.1c0,0.1,0,0.1,0,0.2c0,0.5,0.4,1,1,1.1
	c0.6,0.1,1.2-0.3,1.3-0.9l12.1-80.1c0.7,0.1,1.5,0.1,2.3,0.1v81c0,0.6,0.5,1.1,1.1,1.1c0.6,0,1.1-0.5,1.1-1.1v-81
	c0.8,0,1.5-0.1,2.3-0.1l12.1,80.1c0.1,0.6,0.7,1.1,1.3,0.9c0.6-0.1,1-0.6,1-1.1c0-0.1,0-0.1,0-0.2l-12-80c0.7-0.1,1.5-0.3,2.2-0.5
	l23.9,77.4c0.2,0.6,0.8,0.9,1.4,0.7c0.5-0.2,0.8-0.6,0.8-1.1c0-0.1,0-0.2-0.1-0.3l-23.9-77.4c0.7-0.3,1.4-0.5,2.1-0.8l35.1,73
	c0.3,0.6,1,0.8,1.5,0.5c0.4-0.2,0.6-0.6,0.6-1c0-0.2,0-0.3-0.1-0.5l-35.1-73c0.7-0.4,1.3-0.7,2-1.2l45.6,66.9
	c0.4,0.5,1.1,0.6,1.6,0.3c0.3-0.2,0.5-0.6,0.5-0.9c0-0.2-0.1-0.4-0.2-0.6l-45.6-66.9c0.6-0.5,1.2-0.9,1.8-1.4l55.1,59.4
	c0.4,0.5,1.1,0.5,1.6,0.1c0.2-0.2,0.4-0.5,0.4-0.8c0-0.3-0.1-0.5-0.3-0.8l-55.1-59.4c0.5-0.5,1-1.1,1.5-1.7l63.3,50.5
	c0.5,0.4,1.2,0.3,1.6-0.2c0.2-0.2,0.2-0.5,0.2-0.7c0-0.3-0.1-0.7-0.4-0.9l-63.3-50.5c0.4-0.6,0.9-1.2,1.3-1.9l70.1,40.5
	c0.5,0.3,1.2,0.1,1.5-0.4c0.1-0.2,0.2-0.4,0.2-0.6c0-0.4-0.2-0.8-0.6-1l-70.1-40.4c0.4-0.7,0.7-1.3,1-2l75.4,29.6
	c0.6,0.2,1.2-0.1,1.5-0.6c0.1-0.1,0.1-0.3,0.1-0.4c0-0.5-0.3-0.9-0.7-1.1l-75.4-29.6c0.2-0.7,0.5-1.4,0.7-2.2l79,18
	c0.6,0.1,1.2-0.2,1.4-0.8c0-0.1,0-0.2,0-0.3c0-0.5-0.4-1-0.9-1.1l-79-18c0.1-0.7,0.3-1.5,0.3-2.2l80.8,6.1c0.6,0,1.2-0.4,1.2-1v-0.1
	C512.2,120.1,511.8,119.6,511.2,119.5z M428,115.5c-0.1,0.6-0.2,1.3-0.3,1.9c-0.1,0.7-0.3,1.5-0.5,2.2c-0.2,0.6-0.4,1.2-0.6,1.8
	c-0.2,0.7-0.5,1.4-0.8,2.1c-0.3,0.6-0.5,1.2-0.8,1.7c-0.4,0.7-0.7,1.3-1.1,1.9c-0.3,0.5-0.7,1.1-1.1,1.6c-0.4,0.6-0.9,1.2-1.4,1.8
	c-0.4,0.5-0.8,1-1.3,1.4c-0.5,0.5-1.1,1-1.7,1.5c-0.5,0.4-1,0.8-1.5,1.2c-0.6,0.5-1.2,0.9-1.9,1.3c-0.5,0.3-1.1,0.7-1.7,1
	c-0.7,0.4-1.3,0.7-2,1c-0.6,0.3-1.2,0.5-1.8,0.7c-0.7,0.3-1.4,0.5-2.2,0.7c-0.6,0.2-1.2,0.3-1.9,0.4c-0.7,0.1-1.5,0.3-2.2,0.3
	c-0.6,0.1-1.3,0.1-1.9,0.1c-0.4,0-0.7,0.1-1.1,0.1c-0.4,0-0.8,0-1.1-0.1c-0.6,0-1.3,0-1.9-0.1c-0.8-0.1-1.5-0.2-2.2-0.3
	c-0.6-0.1-1.3-0.3-1.9-0.4c-0.7-0.2-1.5-0.4-2.2-0.7c-0.6-0.2-1.2-0.4-1.8-0.7c-0.7-0.3-1.4-0.6-2-1c-0.6-0.3-1.1-0.6-1.7-1
	c-0.6-0.4-1.3-0.8-1.9-1.3c-0.5-0.4-1-0.8-1.5-1.2c-0.6-0.5-1.1-1-1.7-1.5c-0.5-0.5-0.9-0.9-1.3-1.4c-0.5-0.6-1-1.2-1.4-1.8
	c-0.4-0.5-0.7-1-1.1-1.6c-0.4-0.6-0.8-1.3-1.1-1.9c-0.3-0.6-0.6-1.1-0.8-1.7c-0.3-0.7-0.6-1.4-0.8-2.1c-0.2-0.6-0.4-1.2-0.6-1.8
	c-0.2-0.7-0.4-1.5-0.5-2.2c-0.1-0.6-0.2-1.3-0.3-1.9c-0.1-0.7-0.1-1.5-0.2-2.3c0-0.3,0-0.6,0-1c0-0.3,0-0.6,0-1
	c0-0.8,0.1-1.5,0.2-2.3c0.1-0.6,0.2-1.3,0.3-1.9c0.1-0.7,0.3-1.5,0.5-2.2c0.2-0.6,0.4-1.2,0.6-1.8c0.2-0.7,0.5-1.4,0.8-2.1
	c0.3-0.6,0.5-1.2,0.8-1.7c0.4-0.7,0.7-1.3,1.1-1.9c0.3-0.5,0.7-1.1,1.1-1.6c0.4-0.6,0.9-1.2,1.4-1.8c0.4-0.5,0.8-1,1.3-1.4
	c0.5-0.5,1.1-1,1.7-1.5c0.5-0.4,1-0.8,1.5-1.2c0.6-0.4,1.2-0.9,1.9-1.3c0.5-0.3,1.1-0.7,1.7-1c0.7-0.4,1.3-0.7,2-1
	c0.6-0.3,1.2-0.5,1.8-0.7c0.7-0.3,1.4-0.5,2.2-0.7c0.6-0.2,1.2-0.3,1.9-0.4c0.7-0.1,1.5-0.3,2.2-0.3c0.6-0.1,1.3-0.1,1.9-0.1
	c0.4,0,0.7-0.1,1.1-0.1c0.4,0,0.8,0,1.1,0.1c0.6,0,1.3,0,1.9,0.1c0.8,0.1,1.5,0.2,2.2,0.3c0.6,0.1,1.3,0.3,1.9,0.4
	c0.7,0.2,1.5,0.4,2.2,0.7c0.6,0.2,1.2,0.4,1.8,0.7c0.7,0.3,1.4,0.6,2,1c0.6,0.3,1.1,0.6,1.7,1c0.6,0.4,1.3,0.8,1.9,1.3
	c0.5,0.4,1,0.8,1.5,1.2c0.6,0.5,1.1,1,1.7,1.5c0.5,0.5,0.9,0.9,1.3,1.4c0.5,0.6,1,1.2,1.4,1.8c0.4,0.5,0.7,1,1.1,1.6
	c0.4,0.6,0.8,1.3,1.1,1.9c0.3,0.6,0.6,1.1,0.8,1.7c0.3,0.7,0.6,1.4,0.8,2.1c0.2,0.6,0.4,1.2,0.6,1.8c0.2,0.7,0.4,1.5,0.5,2.2
	c0.1,0.6,0.2,1.3,0.3,1.9c0.1,0.7,0.1,1.5,0.2,2.3c0,0.3,0,0.6,0,1c0,0.3,0,0.6,0,1C428.1,114,428.1,114.8,428,115.5z M400.1,102.2
	c-5.6,0-10.2,4.6-10.2,10.2c0,5.6,4.6,10.2,10.2,10.2c5.6,0,10.2-4.6,10.2-10.2C410.3,106.7,405.8,102.2,400.1,102.2z"/>
</svg>
