<?xml version="1.0" encoding="UTF-8" standalone="no"?>
<!-- Created with Inkscape (http://www.inkscape.org/) -->

<svg
   version="1.1"
   id="svg18"
   width="768"
   height="444"
   viewBox="0 0 768 444"
   sodipodi:docname="SHI_Primary_433.eps"
   xmlns:inkscape="http://www.inkscape.org/namespaces/inkscape"
   xmlns:sodipodi="http://sodipodi.sourceforge.net/DTD/sodipodi-0.dtd"
   xmlns="http://www.w3.org/2000/svg"
   xmlns:svg="http://www.w3.org/2000/svg">
  <defs
     id="defs22" />
  <sodipodi:namedview
     id="namedview20"
     pagecolor="#ffffff"
     bordercolor="#000000"
     borderopacity="0.25"
     inkscape:showpageshadow="2"
     inkscape:pageopacity="0.0"
     inkscape:pagecheckerboard="0"
     inkscape:deskcolor="#d1d1d1"
     showgrid="false" />
  <g
     id="g26"
     inkscape:groupmode="layer"
     inkscape:label="Page 1"
     transform="matrix(1.3333333,0,0,-1.3333333,0,444)">
    <g
       id="g28"
       transform="scale(0.1)">
      <path
         d="m 367.367,2727.29 c 0,72.87 -49.879,85.92 -148.062,111.23 -89.731,23.03 -144.9769,49.11 -144.9769,146.52 0,77.5 51.3909,156.52 162.6329,156.52 59.844,0 88.984,-23.05 108.152,-23.05 11.512,0 14.571,6.14 19.938,16.14 h 23.027 l 5.371,-156.49 h -28.398 c -23.766,95.87 -63.672,127.32 -129.633,127.32 -62.906,0 -104.328,-32.96 -104.328,-83.61 0,-61.37 51.39,-81.3 119.668,-99.73 83.613,-22.23 171.058,-45.25 171.058,-161.83 0,-98.21 -61.363,-172.6 -178.714,-172.6 -71.36,0 -100.5,22.22 -124.293,22.22 -11.485,0 -13.801,-9.2 -19.9418,-23.79 H 75.0703 l -7.6562,177.22 H 96.5547 C 119.578,2677.44 145.66,2624.5 240.785,2624.5 c 81.332,0 126.582,39.14 126.582,102.79 m 203.227,63.67 c 0,-98.95 28.367,-158.03 108.152,-158.03 55.992,0 82.844,36.85 95.871,68.3 l 33.766,-11.51 c -10.742,-35.28 -48.336,-102.01 -144.977,-102.01 -112.781,0 -172.601,72.84 -172.601,187.91 0,138.09 77.472,210.2 187.172,210.2 75.929,0 131.175,-41.43 131.175,-103.56 0,-45.25 -26.082,-62.9 -55.246,-62.9 -26.851,0 -49.078,16.88 -49.078,44.48 0,8.45 1.516,22.25 7.656,33.76 h 26.082 c 1.543,6.14 2.313,11.51 2.313,16.88 0,25.31 -21.481,35.28 -60.617,35.28 -72.875,0 -109.668,-56.76 -109.668,-158.8 m 419.504,189.49 v -348.26 l 58.302,-5.37 v -30.68 H 859.691 v 30.68 l 57.536,5.37 v 308.38 l -57.536,5.36 v 29.91 z m -45.25,174.88 c 27.625,0 48.336,-12.26 48.336,-46.79 0,-29.88 -16.883,-46.79 -47.563,-46.79 -36.055,0 -48.336,20.73 -48.336,46.04 0,26.86 14.598,47.54 47.563,47.54 m 328.292,-169.51 c 92.07,0 148.06,-52.94 148.06,-166.46 0,-9.97 -0.77,-21.48 -1.54,-32.23 h -243.93 c 0,-94.35 27.62,-153.43 106.61,-153.43 52.93,0 80.56,21.48 99.75,65.99 l 33.74,-11.51 c -19.97,-59.82 -69.05,-100.47 -148.06,-100.47 -116.58,0 -171.83,78.24 -171.83,194.05 0,129.67 76.73,204.06 177.2,204.06 m 73.64,-158.03 v 16.88 c 0,69.81 -23.76,105.87 -75.93,105.87 -59.84,0 -90.52,-56.02 -95.12,-122.75 z m 242.34,153.42 5.37,-72.87 h 2.31 c 21.48,37.59 64.42,77.48 134.24,77.48 81.3,0 116.61,-40.66 116.61,-130.41 v -223.22 l 50.62,-5.37 v -30.68 h -174.15 v 30.68 l 50.65,5.37 v 222.45 c 0,50.65 -11.51,79.78 -70.58,79.78 -54.45,0 -102.02,-35.28 -102.02,-97.41 v -204.82 l 52.17,-5.37 v -30.68 h -174.92 v 30.68 l 49.88,5.37 v 308.38 l -49.88,5.36 v 29.91 z m 441.01,-190.25 c 0,-98.95 28.4,-158.03 108.16,-158.03 56.02,0 82.84,36.85 95.9,68.3 l 33.73,-11.51 c -10.74,-35.28 -48.3,-102.01 -144.97,-102.01 -112.76,0 -172.6,72.84 -172.6,187.91 0,138.09 77.47,210.2 187.17,210.2 75.96,0 131.18,-41.43 131.18,-103.56 0,-45.25 -26.09,-62.9 -55.22,-62.9 -26.86,0 -49.11,16.88 -49.11,44.48 0,8.45 1.54,22.25 7.68,33.76 h 26.09 c 1.51,6.14 2.28,11.51 2.28,16.88 0,25.31 -21.48,35.28 -60.59,35.28 -72.87,0 -109.7,-56.76 -109.7,-158.8 m 473.24,194.86 c 92.05,0 148.04,-52.94 148.04,-166.46 0,-9.97 -0.75,-21.48 -1.55,-32.23 h -243.93 c 0,-94.35 27.63,-153.43 106.64,-153.43 52.94,0 80.53,21.48 99.73,65.99 l 33.74,-11.51 c -19.94,-59.82 -69.05,-100.47 -148.04,-100.47 -116.61,0 -171.85,78.24 -171.85,194.05 0,129.67 76.73,204.06 177.22,204.06 m 73.62,-158.03 v 16.88 c 0,69.81 -23.77,105.87 -75.93,105.87 -59.82,0 -90.53,-56.02 -95.13,-122.75 z M 196.309,2076.54 h 238.558 v 205.57 l -60.59,5.37 v 30.71 h 201.739 v -29.94 l -60.618,-5.37 v -465.61 l 60.618,-6.17 v -29.91 H 374.277 v 29.91 l 60.59,6.17 v 217.85 H 196.309 v -217.85 l 60.589,-6.17 v -29.91 H 55.1602 v 29.91 l 60.5898,6.17 v 464.84 l -60.5898,5.37 v 30.71 H 256.898 v -29.94 l -60.589,-5.37 z m 568.308,88.99 v -348.26 l 58.309,-5.37 v -30.71 H 634.211 v 30.71 l 57.535,5.37 v 308.38 l -57.535,5.34 v 29.94 z m -45.246,174.89 c 27.621,0 48.332,-12.26 48.332,-46.8 0,-29.91 -16.883,-46.79 -47.562,-46.79 -36.051,0 -48.336,20.74 -48.336,46.05 0,26.82 14.57,47.54 47.566,47.54 M 880.43,1910.09 h 29.91 c 4.598,-69.05 60.59,-99.76 115.04,-99.76 48.33,0 76.73,23.05 76.73,66.76 0,52.16 -45.25,61.36 -94.36,70.56 -57.531,11.54 -119.664,23.03 -119.664,106.64 0,65.99 54.449,116.61 125.034,116.61 29.91,0 55.22,-6.91 73.65,-17.65 5.37,-3.09 9.97,-4.6 13.8,-4.6 9.2,0 12.28,8.45 13.05,22.25 h 25.31 v -119.67 h -29.91 c -14.57,56.77 -46.02,84.39 -96.67,84.39 -39.877,0 -69.815,-23.8 -69.815,-56.76 0,-43.74 42.965,-52.19 92.845,-62.16 58.3,-11.51 121.98,-26.86 121.98,-116.58 0,-70.59 -43,-127.35 -128.9,-127.35 -43.733,0 -75.155,13.05 -100.495,28.36 -3.055,1.55 -6.113,3.09 -9.199,3.09 -6.141,0 -9.969,-5.37 -12.282,-31.45 H 880.43 Z m 381.17,214.76 h -57.53 v 37.6 h 57.53 v 98.98 l 55.25,15.34 h 17.62 v -114.32 h 84.39 v -37.6 h -84.39 v -249.3 c 0,-42.17 9.97,-59.08 39.91,-59.08 28.37,0 46.02,13.83 59.08,60.62 l 29.13,-7.68 c -15.34,-65.19 -46.02,-96.64 -111.23,-96.64 -55.22,0 -89.76,26.85 -89.76,90.5 z m 417.27,46.05 c 117.36,0 173.38,-81.33 173.38,-197.91 0,-119.67 -65.96,-200.22 -177.97,-200.22 -115.07,0 -174.15,80.55 -174.15,197.14 0,119.66 69.05,200.99 178.74,200.99 m -3.82,-36.82 c -78.25,0 -95.13,-75.19 -95.13,-158.8 0,-85.91 17.63,-165.69 97.41,-165.69 76.7,0 95.13,75.19 95.13,160.32 0,83.61 -16.88,164.17 -97.41,164.17 m 440.21,-322.18 v -30.71 H 1909.7 v 30.71 l 49.85,5.37 v 308.38 l -49.85,5.34 v 29.94 l 110.46,4.6 5.37,-66.73 h 3.06 c 22.26,39.88 53.71,72.1 110.47,72.1 42.19,0 78.24,-25.31 78.24,-71.36 0,-41.42 -21.48,-59.82 -53.7,-59.82 -30.68,0 -49.85,19.17 -49.08,52.16 l 24.54,9.97 c 0.77,3.06 1.54,6.15 1.54,9.2 0,13.8 -11.51,18.43 -25.34,18.43 -40.65,0 -82.84,-52.94 -82.84,-97.41 v -214.8 z m 135.51,350.55 h 169.51 v -30.69 l -52.93,-3.05 89.01,-261.62 h 3.06 l 88.21,261.62 -52.93,3.05 v 30.69 h 136.55 v -30.69 l -38.34,-3.05 -146.55,-406.59 c -23.76,-65.96 -43.7,-102.76 -108.15,-102.76 -46.79,0 -88.21,23.77 -88.21,72.88 0,28.36 17.65,53.67 50.62,53.67 24.54,0 42.96,-16.11 43.73,-50.62 l -29.17,-16.11 c -3.05,-19.17 9.98,-26.08 30.71,-26.08 32.2,0 40.65,20.71 67.48,98.95 l 6.91,21.49 -135,355.17 -34.51,3.05 z M 115.75,1467.2 l -60.5898,5.37 v 30.68 H 256.898 v -29.91 l -60.589,-5.37 v -465.64 l 60.589,-5.369 v -30.68 H 55.1602 v 29.91 l 60.5898,5.369 z m 313.695,-115.84 5.368,-72.87 h 2.316 c 21.48,37.59 64.418,77.5 134.234,77.5 81.301,0 116.61,-40.65 116.61,-130.44 v -223.22 l 50.621,-5.369 v -30.68 H 564.449 v 30.68 l 50.649,5.369 v 222.48 c 0,50.62 -11.512,79.76 -70.586,79.76 -54.449,0 -102.016,-35.28 -102.016,-97.42 v -204.82 l 52.164,-5.369 v -30.68 H 319.746 v 30.68 l 49.879,5.369 v 308.38 l -49.879,5.37 v 29.91 z m 367.371,-256.19 h 29.911 c 4.625,-69.04 60.617,-99.748 115.066,-99.748 48.332,0 76.727,23.018 76.727,66.728 0,52.19 -45.278,61.39 -94.356,70.59 -57.531,11.51 -119.664,23.02 -119.664,106.61 0,65.99 54.449,116.64 125.035,116.64 29.91,0 55.223,-6.94 73.645,-17.66 5.37,-3.08 9.97,-4.6 13.8,-4.6 9.2,0 12.28,8.43 13.03,22.26 h 25.31 v -119.67 h -29.91 c -14.57,56.73 -46.023,84.36 -96.644,84.36 -39.911,0 -69.817,-23.77 -69.817,-56.76 0,-43.74 42.961,-52.17 92.813,-62.14 58.308,-11.51 121.978,-26.85 121.978,-116.58 0,-70.59 -42.96,-127.348 -128.865,-127.348 -43.734,0 -75.187,13.027 -100.496,28.367 -3.086,1.543 -6.141,3.082 -9.199,3.082 -6.141,0 -9.969,-5.391 -12.282,-31.449 h -26.082 z m 381.194,214.77 h -57.53 v 37.59 h 57.53 v 98.96 l 55.22,15.34 h 17.63 v -114.3 h 84.38 v -37.59 h -84.38 v -249.31 c 0,-42.19 10,-59.07 39.91,-59.07 28.39,0 46.02,13.8 59.07,60.59 l 29.14,-7.66 c -15.34,-65.189 -46.02,-96.638 -111.24,-96.638 -55.22,0 -89.73,26.847 -89.73,90.498 z m 369.69,40.68 v -348.29 l 58.3,-5.369 v -30.68 h -188.71 v 30.68 l 57.53,5.369 v 308.38 l -57.53,5.37 v 29.91 z m -45.25,174.88 c 27.59,0 48.33,-12.25 48.33,-46.79 0,-29.91 -16.88,-46.79 -47.56,-46.79 -36.08,0 -48.34,20.71 -48.34,46.02 0,26.85 14.57,47.56 47.57,47.56 m 199.39,-215.56 h -57.53 v 37.59 h 57.53 v 98.96 l 55.25,15.34 h 17.63 v -114.3 h 84.38 v -37.59 h -84.38 v -249.31 c 0,-42.19 9.97,-59.07 39.91,-59.07 28.36,0 46.02,13.8 59.04,60.59 l 29.17,-7.66 c -15.34,-65.189 -46.02,-96.638 -111.24,-96.638 -55.25,0 -89.76,26.847 -89.76,90.498 z m 347.46,-222.45 c 0,-50.65 13.06,-78.27 69.82,-78.27 54.48,0 99.73,33.76 99.73,103.58 v 197.91 l -52.17,5.37 v 29.91 l 125.04,4.63 v -348.29 l 49.85,-5.369 v -30.68 h -111.21 l -3.86,65.219 h -3.05 c -21.49,-37.602 -62.91,-73.648 -128.87,-73.648 -81.33,0 -118.15,40.648 -118.15,130.378 v 222.48 l -50.62,5.37 v 29.91 l 123.49,4.63 z m 378.14,222.45 h -57.56 v 37.59 h 57.56 v 98.96 l 55.22,15.34 h 17.63 v -114.3 h 84.41 v -37.59 h -84.41 v -249.31 c 0,-42.19 9.97,-59.07 39.91,-59.07 28.36,0 46.02,13.8 59.07,60.59 l 29.14,-7.66 c -15.34,-65.189 -46.02,-96.638 -111.24,-96.638 -55.22,0 -89.73,26.847 -89.73,90.498 z m 415.71,46.05 c 92.07,0 148.06,-52.94 148.06,-166.46 0,-10 -0.77,-21.48 -1.54,-32.25 h -243.93 c 0,-94.36 27.62,-153.41 106.61,-153.41 52.93,0 80.56,21.46 99.75,65.99 l 33.74,-11.54 c -19.94,-59.82 -69.05,-100.468 -148.06,-100.468 -116.58,0 -171.83,78.248 -171.83,194.078 0,129.64 76.73,204.06 177.2,204.06 m 73.64,-158.06 v 16.91 c 0,69.79 -23.76,105.84 -75.93,105.84 -59.84,0 -90.52,-55.99 -95.12,-122.75 z m 2738.8,-653.578 v 0 c 0,6.418 -6.14,11.617 -13.71,11.617 H 70.9414 c -7.5742,0 -13.7148,-5.199 -13.7148,-11.617 0,-6.391 6.1406,-11.602 13.7148,-11.602 H 5641.88 c 7.57,0 13.71,5.211 13.71,11.602 m 47.84,1424.208 -892.69,66.92 c 0.17,4.19 0.64,8.29 0.64,12.5 0,4.25 -0.47,8.35 -0.64,12.54 l 892.69,66.89 c 6.56,0.5 11.57,5.98 11.57,12.42 0,0.33 0,0.64 -0.03,0.97 -0.52,6.88 -6.55,12.17 -13.38,11.54 l -892.45,-66.9 c -0.93,8.37 -2.23,16.63 -3.77,24.79 l 872.53,199.15 c 5.79,1.32 9.7,6.47 9.7,12.17 0,0.91 -0.09,1.87 -0.31,2.78 -1.54,6.69 -8.23,11.02 -14.95,9.39 l -872.67,-199.17 c -2.18,8.12 -4.6,16.11 -7.35,23.96 l 833.2,326.99 c 4.93,1.96 7.93,6.67 7.93,11.68 0,1.52 -0.27,3.06 -0.85,4.54 -2.54,6.42 -9.81,9.59 -16.2,7.05 l -833.03,-326.94 c -3.36,7.69 -7,15.23 -10.88,22.62 l 775.01,447.43 c 3.99,2.31 6.22,6.5 6.22,10.82 0,2.12 -0.52,4.27 -1.68,6.23 -3.44,5.97 -11.1,8.04 -17.05,4.57 l -775.2,-447.55 c -4.46,7.11 -9.2,13.97 -14.16,20.69 l 699.88,558.09 c 3.11,2.48 4.71,6.12 4.71,9.81 0,2.72 -0.91,5.45 -2.73,7.74 -4.27,5.4 -12.17,6.25 -17.54,1.98 l -699.79,-558.04 c -5.46,6.33 -10.96,12.64 -16.89,18.54 l 608.61,655.97 c 2.26,2.37 3.36,5.43 3.36,8.45 0,3.37 -1.35,6.7 -4.02,9.18 -4.99,4.68 -12.89,4.4 -17.63,-0.66 l -608.8,-656.12 c -6.33,5.46 -12.91,10.58 -19.66,15.54 l 504.25,739.61 c 1.49,2.15 2.18,4.6 2.18,7 0,4.02 -1.9,7.93 -5.46,10.36 -5.62,3.85 -13.41,2.45 -17.35,-3.31 l -504.22,-739.53 c -7.05,4.43 -14.18,8.78 -21.59,12.72 l 388.24,806.24 c 0.86,1.76 1.24,3.61 1.24,5.42 0,4.63 -2.59,9.09 -7.05,11.24 -6.11,3.03 -13.66,0.41 -16.66,-5.81 l -388.3,-806.27 c -7.63,3.34 -15.48,6.23 -23.41,8.98 l 263.84,855.32 c 0.39,1.21 0.55,2.45 0.55,3.69 0,5.34 -3.41,10.27 -8.78,11.92 -6.64,2.18 -13.61,-1.65 -15.62,-8.26 L 4563.12,2371.1 c -8.04,2.17 -16.14,4.18 -24.4,5.72 l 133.38,884.98 c 0.11,0.61 0.17,1.24 0.17,1.85 0,6.09 -4.47,11.43 -10.66,12.34 -6.78,1.15 -13.17,-3.64 -14.19,-10.49 l -133.38,-884.9 c -8.23,0.91 -16.61,1.29 -25.01,1.6 v 895.19 c 0,6.89 -5.59,12.48 -12.5,12.48 -6.91,0 -12.48,-5.59 -12.48,-12.48 V 2382.2 c -8.4,-0.31 -16.8,-0.69 -25,-1.6 l -133.41,884.9 c -1.02,6.82 -7.38,11.51 -14.19,10.49 -6.19,-0.91 -10.63,-6.25 -10.63,-12.34 0,-0.61 0.06,-1.24 0.14,-1.85 l 133.38,-884.98 c -8.26,-1.54 -16.36,-3.55 -24.4,-5.72 l -263.87,855.34 c -2.01,6.61 -8.98,10.3 -15.59,8.26 -5.37,-1.65 -8.81,-6.58 -8.81,-11.92 0,-1.24 0.16,-2.48 0.55,-3.69 l 263.84,-855.32 c -7.93,-2.75 -15.81,-5.64 -23.41,-8.98 l -388.3,806.27 c -3,6.22 -10.52,8.81 -16.66,5.81 -4.46,-2.15 -7.08,-6.61 -7.08,-11.24 0,-1.81 0.39,-3.69 1.24,-5.42 l 388.27,-806.24 c -7.4,-3.94 -14.54,-8.29 -21.59,-12.72 l -504.25,739.53 c -3.88,5.76 -11.65,7.16 -17.32,3.31 -3.58,-2.43 -5.48,-6.34 -5.48,-10.36 0,-2.4 0.71,-4.85 2.17,-7 l 504.28,-739.61 c -6.72,-4.96 -13.33,-10.08 -19.66,-15.54 l -608.8,656.12 c -4.74,5.09 -12.61,5.34 -17.65,0.66 -2.65,-2.48 -4,-5.81 -4,-9.18 0,-3.02 1.1,-6.08 3.34,-8.45 l 608.63,-655.95 c -5.9,-5.92 -11.41,-12.23 -16.89,-18.56 l -699.79,558.04 c -5.34,4.35 -13.22,3.42 -17.51,-1.98 -1.85,-2.29 -2.76,-5.02 -2.76,-7.74 0,-3.69 1.63,-7.33 4.71,-9.81 l 699.88,-558.09 c -4.96,-6.72 -9.7,-13.58 -14.16,-20.66 l -775.2,447.52 c -5.95,3.44 -13.61,1.4 -17.05,-4.57 -1.15,-1.96 -1.68,-4.11 -1.68,-6.23 0,-4.32 2.26,-8.51 6.25,-10.82 l 774.98,-447.43 c -3.88,-7.39 -7.52,-14.9 -10.88,-22.62 l -833,326.94 c -6.39,2.54 -13.67,-0.63 -16.23,-7.05 -0.57,-1.51 -0.85,-3.05 -0.85,-4.59 0,-4.99 3,-9.7 7.93,-11.63 l 833.2,-326.99 c -2.75,-7.85 -5.17,-15.84 -7.35,-23.96 l -872.67,199.17 c -6.77,1.63 -13.44,-2.7 -14.95,-9.39 -0.22,-0.91 -0.33,-1.87 -0.33,-2.78 0,-5.7 3.94,-10.85 9.72,-12.17 l 872.53,-199.15 c -1.54,-8.16 -2.84,-16.42 -3.77,-24.79 l -892.45,66.9 c -6.94,0.66 -12.83,-4.66 -13.38,-11.54 -0.03,-0.33 -0.03,-0.64 -0.03,-0.97 0,-6.44 5.01,-11.92 11.57,-12.42 l 892.69,-66.89 c -0.17,-4.19 -0.63,-8.29 -0.63,-12.54 0,-4.21 0.46,-8.31 0.63,-12.5 l -892.69,-66.92 c -6.56,-0.5 -11.57,-5.98 -11.57,-12.43 0,-0.33 0,-0.63 0.03,-0.96 0.55,-6.88 6.47,-11.92 13.38,-11.54 l 892.45,66.93 c 0.93,-8.38 2.23,-16.64 3.77,-24.82 l -872.53,-199.15 c -5.78,-1.32 -9.72,-6.47 -9.72,-12.17 0,-0.94 0.11,-1.87 0.33,-2.78 1.51,-6.7 8.15,-10.99 14.95,-9.39 l 872.67,199.17 c 2.18,-8.12 4.6,-16.08 7.35,-23.96 l -833.2,-326.97 c -4.93,-1.95 -7.93,-6.66 -7.93,-11.67 0,-1.52 0.28,-3.06 0.85,-4.55 2.56,-6.42 9.84,-9.58 16.23,-7.05 l 833,326.91 c 3.36,-7.68 7,-15.23 10.88,-22.61 l -774.98,-447.43 c -3.99,-2.29 -6.25,-6.5 -6.25,-10.82 0,-2.12 0.53,-4.27 1.68,-6.23 3.42,-5.97 11.05,-8.01 17.05,-4.57 l 775.2,447.54 c 4.43,-7.07 9.17,-13.96 14.16,-20.65 l -699.88,-558.12 c -3.08,-2.48 -4.71,-6.12 -4.71,-9.78 0,-2.75 0.91,-5.48 2.76,-7.77 4.29,-5.42 12.17,-6.28 17.51,-1.98 l 699.79,558.04 c 5.46,-6.34 10.97,-12.64 16.89,-18.56 l -608.63,-655.92 c -2.24,-2.4 -3.34,-5.46 -3.34,-8.49 0,-3.36 1.35,-6.69 4,-9.17 5.04,-4.71 12.94,-4.43 17.65,0.66 l 608.8,656.12 c 6.33,-5.46 12.91,-10.55 19.66,-15.54 l -504.28,-739.61 c -1.46,-2.15 -2.17,-4.6 -2.17,-7 0,-4.02 1.9,-7.93 5.48,-10.36 5.67,-3.88 13.44,-2.45 17.32,3.31 l 504.25,739.53 c 7.05,-4.43 14.19,-8.78 21.59,-12.69 L 3931.85,945.762 c -0.85,-1.762 -1.24,-3.614 -1.24,-5.43 0,-4.621 2.62,-9.082 7.08,-11.23 6.11,-3.063 13.66,-0.391 16.66,5.808 l 388.28,806.27 c 7.62,-3.34 15.5,-6.2 23.43,-8.98 L 4102.22,876.879 c -0.39,-1.207 -0.55,-2.449 -0.55,-3.688 0,-5.339 3.44,-10.25 8.81,-11.929 6.56,-2.063 13.55,1.679 15.59,8.269 l 263.87,855.339 c 8.04,-2.15 16.14,-4.18 24.4,-5.73 L 4280.96,834.16 c -0.08,-0.601 -0.14,-1.238 -0.14,-1.84 0,-6.09 4.44,-11.429 10.63,-12.34 6.56,-1.019 13.14,3.661 14.19,10.489 l 133.38,884.901 c 8.23,-0.91 16.61,-1.27 25.03,-1.6 V 818.582 c 0,-6.891 5.57,-12.48 12.48,-12.48 6.91,0 12.5,5.589 12.5,12.48 v 895.188 c 8.4,0.33 16.78,0.69 25.01,1.6 l 133.38,-884.901 c 1.05,-6.848 7.69,-11.617 14.19,-10.489 6.19,0.911 10.66,6.25 10.66,12.34 0,0.602 -0.06,1.239 -0.17,1.84 l -133.38,884.98 c 8.29,1.55 16.36,3.58 24.4,5.73 l 263.87,-855.339 c 2.04,-6.59 9.09,-10.39 15.62,-8.269 5.37,1.679 8.78,6.59 8.78,11.929 0,1.239 -0.16,2.481 -0.55,3.688 L 4587.03,1732.2 c 7.9,2.78 15.75,5.64 23.41,8.98 l 388.27,-806.27 c 3,-6.199 10.58,-8.871 16.66,-5.808 4.46,2.148 7.05,6.609 7.05,11.23 0,1.816 -0.38,3.668 -1.24,5.43 l -388.24,806.268 c 7.41,3.91 14.54,8.26 21.59,12.72 l 504.22,-739.56 c 3.94,-5.76 11.73,-7.19 17.35,-3.31 3.56,2.43 5.46,6.34 5.46,10.36 0,2.4 -0.69,4.85 -2.18,7 l -504.22,739.61 c 6.72,4.99 13.3,10.11 19.63,15.56 l 608.8,-656.14 c 4.71,-5.09 12.64,-5.37 17.63,-0.66 2.67,2.48 4.02,5.81 4.02,9.17 0,3.03 -1.1,6.09 -3.36,8.49 l -608.61,655.94 c 5.93,5.9 11.43,12.2 16.89,18.54 l 699.79,-558.04 c 5.37,-4.35 13.27,-3.44 17.54,1.98 1.82,2.29 2.73,5.02 2.73,7.77 0,3.66 -1.6,7.3 -4.71,9.78 l -699.88,558.12 c 4.99,6.72 9.7,13.58 14.16,20.65 l 775.2,-447.54 c 5.98,-3.47 13.63,-1.43 17.05,4.57 1.16,1.96 1.68,4.11 1.68,6.23 0,4.32 -2.23,8.53 -6.22,10.82 l -775.01,447.46 c 3.88,7.35 7.52,14.9 10.88,22.58 l 833.03,-326.91 c 6.39,-2.53 13.66,0.63 16.2,7.05 0.58,1.52 0.85,3.06 0.85,4.6 0,4.99 -3,9.7 -7.93,11.62 l -833.2,327 c 2.75,7.85 5.17,15.84 7.35,23.93 l 872.67,-199.17 c 6.75,-1.63 13.41,2.69 14.95,9.39 0.22,0.91 0.31,1.84 0.31,2.78 0,5.7 -3.91,10.85 -9.7,12.17 l -872.53,199.15 c 1.54,8.18 2.84,16.44 3.77,24.82 l 892.45,-66.93 c 6.77,-0.33 12.86,4.66 13.38,11.54 0.03,0.33 0.03,0.63 0.03,0.96 0,6.45 -5.01,11.93 -11.57,12.43 m -919.24,43.87 c -0.82,-7.13 -1.95,-14.13 -3.25,-21.1 -1.51,-8.26 -3.49,-16.33 -5.67,-24.34 -1.87,-6.89 -3.94,-13.66 -6.25,-20.36 -2.76,-7.9 -5.68,-15.72 -9.04,-23.32 -2.86,-6.5 -5.95,-12.92 -9.25,-19.2 -3.91,-7.41 -8.18,-14.51 -12.64,-21.54 -3.83,-6.03 -7.85,-11.84 -12.06,-17.57 -4.96,-6.72 -10.09,-13.27 -15.54,-19.55 -4.65,-5.37 -9.33,-10.74 -14.35,-15.78 -5.86,-5.93 -12.09,-11.46 -18.42,-16.86 -5.4,-4.63 -11.02,-8.95 -16.72,-13.19 -6.66,-4.99 -13.52,-9.7 -20.6,-14.13 -6.03,-3.77 -12.06,-7.55 -18.34,-10.91 -7.33,-3.91 -14.85,-7.52 -22.5,-10.85 -6.5,-2.81 -13.22,-5.2 -19.94,-7.6 -7.82,-2.78 -15.78,-5.2 -23.85,-7.35 -6.86,-1.82 -13.75,-3.58 -20.77,-4.93 -8.12,-1.57 -16.36,-2.89 -24.68,-3.8 -7.02,-0.75 -14.15,-0.99 -21.29,-1.3 -4.18,-0.16 -8.29,-0.63 -12.5,-0.63 -4.21,0 -8.32,0.47 -12.48,0.63 -7.16,0.31 -14.29,0.55 -21.31,1.3 -8.32,0.91 -16.55,2.23 -24.65,3.77 -7.05,1.35 -13.91,3.14 -20.77,4.96 -8.1,2.15 -16.05,4.57 -23.9,7.35 -6.72,2.4 -13.42,4.79 -19.92,7.6 -7.65,3.33 -15.17,6.94 -22.5,10.85 -6.28,3.36 -12.31,7.14 -18.34,10.91 -7.08,4.43 -13.91,9.14 -20.6,14.1 -5.7,4.27 -11.32,8.59 -16.72,13.19 -6.33,5.43 -12.56,10.96 -18.42,16.89 -5.02,5.04 -9.7,10.41 -14.35,15.78 -5.46,6.28 -10.58,12.83 -15.54,19.55 -4.21,5.73 -8.23,11.54 -12.06,17.54 -4.43,7.03 -8.73,14.16 -12.61,21.54 -3.33,6.31 -6.39,12.7 -9.28,19.23 -3.36,7.6 -6.28,15.39 -9.04,23.3 -2.31,6.69 -4.4,13.49 -6.28,20.38 -2.14,8.01 -4.13,16.08 -5.67,24.34 -1.29,6.97 -2.4,13.97 -3.22,21.1 -0.94,8.18 -1.38,16.52 -1.65,24.92 -0.14,3.56 -0.55,7.05 -0.55,10.63 0,3.61 0.41,7.11 0.55,10.66 0.27,8.4 0.71,16.72 1.65,24.93 0.82,7.1 1.93,14.13 3.22,21.09 1.54,8.24 3.53,16.31 5.67,24.32 1.88,6.89 3.97,13.69 6.28,20.38 2.76,7.91 5.68,15.7 9.04,23.3 2.89,6.53 5.95,12.95 9.28,19.23 3.88,7.38 8.18,14.51 12.64,21.53 3.8,6.01 7.85,11.85 12.06,17.57 4.93,6.73 10.05,13.25 15.51,19.56 4.68,5.37 9.33,10.74 14.35,15.78 5.86,5.89 12.09,11.43 18.42,16.86 5.4,4.62 11.02,8.95 16.75,13.19 6.66,4.96 13.49,9.69 20.57,14.1 6.03,3.77 12.06,7.55 18.34,10.9 7.33,3.92 14.85,7.52 22.5,10.85 6.5,2.84 13.22,5.24 19.94,7.61 7.83,2.78 15.78,5.2 23.88,7.35 6.86,1.82 13.72,3.61 20.77,4.96 8.12,1.54 16.33,2.86 24.67,3.77 7,0.77 14.13,0.99 21.29,1.29 4.16,0.17 8.27,0.64 12.48,0.64 4.21,0 8.32,-0.47 12.5,-0.64 7.14,-0.3 14.27,-0.55 21.29,-1.29 8.32,-0.91 16.56,-2.23 24.68,-3.77 7.02,-1.35 13.88,-3.14 20.74,-4.96 8.1,-2.15 16.06,-4.57 23.88,-7.35 6.72,-2.4 13.44,-4.77 19.94,-7.61 7.65,-3.33 15.17,-6.93 22.5,-10.85 6.28,-3.35 12.31,-7.13 18.34,-10.9 7.08,-4.44 13.91,-9.14 20.6,-14.1 5.7,-4.24 11.32,-8.57 16.72,-13.19 6.33,-5.43 12.56,-10.97 18.42,-16.89 5.02,-5.04 9.7,-10.41 14.35,-15.78 5.45,-6.28 10.58,-12.83 15.51,-19.53 4.21,-5.72 8.26,-11.56 12.06,-17.57 4.46,-7.02 8.76,-14.15 12.64,-21.53 3.33,-6.28 6.39,-12.7 9.28,-19.23 3.36,-7.6 6.28,-15.39 9.04,-23.3 2.31,-6.69 4.38,-13.49 6.25,-20.38 2.18,-8.01 4.16,-16.08 5.67,-24.32 1.3,-6.96 2.43,-13.99 3.25,-21.09 0.94,-8.21 1.38,-16.53 1.65,-24.93 0.11,-3.55 0.56,-7.05 0.56,-10.66 0,-3.58 -0.45,-7.07 -0.56,-10.63 -0.27,-8.4 -0.71,-16.74 -1.65,-24.92 m -307.66,147.92 c -62.05,0 -112.37,-50.32 -112.37,-112.37 0,-62.05 50.32,-112.36 112.37,-112.36 62.05,0 112.37,50.31 112.37,112.36 0,62.05 -50.32,112.37 -112.37,112.37"
         style="fill:#1e2227;fill-opacity:1;fill-rule:nonzero;stroke:none"
         id="path30" />
      <path
         d="m 45,226.98 c 0,62.602 49.1055,114.918 111.074,114.918 31.149,0 59.102,-12.828 78.356,-33.679 l -15.094,-13.16 c -15.727,16.363 -38.531,26.961 -63.262,26.961 -50.402,0 -89.867,-43.68 -89.867,-95.04 0,-51.371 39.465,-94.058 89.867,-94.058 24.731,0 47.203,10.277 63.262,26.969 l 15.094,-13.5 C 215.176,125.84 187.223,113.012 156.074,113.012 94.1055,113.012 45,164.371 45,226.98"
         style="fill:#1e2227;fill-opacity:1;fill-rule:nonzero;stroke:none"
         id="path32" />
      <path
         d="m 404.84,204.18 v -87.328 h -20.547 v 86.367 c 0,28.89 -18.285,47.203 -42.387,47.203 -24.07,0 -49.433,-14.133 -50.07,-50.402 v -83.168 h -20.57 v 231.48 h 20.57 V 239.82 c 8.98,21.512 33.383,30.821 52,30.821 36.297,0 61.004,-25.039 61.004,-66.461"
         style="fill:#1e2227;fill-opacity:1;fill-rule:nonzero;stroke:none"
         id="path34" />
      <path
         d="M 593.578,183.309 H 464.492 c 3.528,-32.11 26.028,-50.727 56.211,-50.727 20.547,0 38.832,9.969 48.805,26.328 l 17.652,-7.711 C 573.996,127.129 548.301,113 520.043,113 c -42.387,0 -76.098,31.781 -76.098,79.32 0,47.5 33.711,78.321 76.098,78.321 42.715,0 74.168,-30.821 74.168,-78.321 0,-2.898 -0.301,-6.121 -0.633,-9.011 m -19.91,17.652 c -2.895,31.148 -24.402,50.098 -53.625,50.098 -29.523,0 -51.063,-17.977 -55.219,-50.098 h 108.844"
         style="fill:#1e2227;fill-opacity:1;fill-rule:nonzero;stroke:none"
         id="path36" />
      <path
         d="m 873.48,204.18 v -87.328 h -20.542 v 86.367 c 0,28.89 -17.325,47.5 -42.059,47.5 -28.258,0.332 -46.875,-17.321 -46.875,-57.449 v -76.418 h -20.215 v 86.367 c 0,29.222 -17.351,47.5 -41.09,47.5 -24.097,0 -47.207,-14.758 -47.867,-50.699 v -83.168 h -20.547 v 149.929 h 20.547 v -26.633 c 7.41,19.883 29.223,30.493 51.391,30.493 24.074,0 44.289,-12.84 52.66,-35.969 11.539,29.547 37.539,35.969 55.219,35.969 36.273,0 59.378,-25.039 59.378,-66.461"
         style="fill:#1e2227;fill-opacity:1;fill-rule:nonzero;stroke:none"
         id="path38" />
      <path
         d="m 917.402,322.012 c 0,8.679 7.407,14.758 15.727,14.758 8.976,0 16.055,-6.079 16.055,-14.758 0,-8.34 -7.079,-14.43 -16.055,-14.43 -8.32,0 -15.727,6.09 -15.727,14.43 m 5.453,-55.223 h 20.543 v -149.93 h -20.543 v 149.93"
         style="fill:#1e2227;fill-opacity:1;fill-rule:nonzero;stroke:none"
         id="path40" />
      <path
         d="m 982.543,156.66 h 18.947 c 2.26,-12.531 13.8,-25.371 35.64,-25.371 21.54,0 34.67,11.242 34.67,26.332 0,12.199 -8.34,20.219 -23.74,24.098 l -21.51,5.121 c -21.2,5.148 -38.226,16.058 -38.226,41.09 0,24.41 20.876,42.718 49.466,42.718 25.03,0 48.14,-13.796 49.1,-40.789 h -19.91 c -0.96,13.5 -14.1,22.481 -28.86,22.481 -17.35,0 -29.25,-10.61 -29.25,-24.711 0,-14.149 12.2,-20.238 23.14,-22.797 l 22.14,-5.461 c 29.22,-7.07 38.2,-24.73 38.2,-42.082 0,-26.629 -24.07,-44.277 -55.22,-44.277 -26,0 -52.001,15.09 -54.587,43.648"
         style="fill:#1e2227;fill-opacity:1;fill-rule:nonzero;stroke:none"
         id="path42" />
      <path
         d="m 1197.3,266.789 v -17.68 h -34.34 v -132.25 h -20.21 v 132.25 h -27.33 v 17.68 h 27.33 v 56.191 h 20.21 v -56.191 h 34.34"
         style="fill:#1e2227;fill-opacity:1;fill-rule:nonzero;stroke:none"
         id="path44" />
      <path
         d="m 1320.57,266.148 -3.86,-19.578 c -7.71,3.192 -14.76,4.149 -20.21,4.149 -35.64,0 -46.58,-40.43 -46.58,-77.36 v -56.507 h -20.84 v 149.929 h 20.84 V 230.18 c 7.41,25.359 23.44,40.461 46.91,40.461 8.31,0 17.95,-1.602 23.74,-4.493"
         style="fill:#1e2227;fill-opacity:1;fill-rule:nonzero;stroke:none"
         id="path46" />
      <path
         d="m 1455.36,266.789 -51.7,-122.641 -51.03,122.641 h -22.14 l 61.96,-148.359 -30.82,-74.4691 h 21.82 l 94.08,222.8281 h -22.17"
         style="fill:#1e2227;fill-opacity:1;fill-rule:nonzero;stroke:none"
         id="path48" />
      <path
         d="m 1591.86,223.129 c 0,20.351 16.78,35.223 37.18,35.223 20.36,0 37.13,-14.872 37.13,-35.223 0,-20.379 -16.77,-35.231 -37.13,-35.231 -20.4,0 -37.18,14.852 -37.18,35.231"
         style="fill:#1e2227;fill-opacity:1;fill-rule:nonzero;stroke:none"
         id="path50" />
      <path
         d="m 1828.73,136.75 h 108.82 v -19.91 h -129.69 v 221.242 h 126.16 v -19.91 H 1828.73 V 235.32 h 91.83 v -19.91 h -91.83 v -78.66"
         style="fill:#1e2227;fill-opacity:1;fill-rule:nonzero;stroke:none"
         id="path52" />
      <path
         d="m 2111.22,204.18 v -87.328 h -20.55 v 86.367 c 0,28.89 -18.28,47.203 -42.38,47.203 -24.07,0 -49.44,-14.133 -50.07,-50.402 v -83.168 h -20.58 v 149.929 h 20.58 V 239.82 c 8.98,21.512 33.38,30.821 51.99,30.821 36.3,0 61.01,-25.039 61.01,-66.461"
         style="fill:#1e2227;fill-opacity:1;fill-rule:nonzero;stroke:none"
         id="path54" />
      <path
         d="m 2285.82,266.789 h 20.55 V 137.41 c 0,-72.5702 -32.44,-97.2811 -81.25,-97.2811 -25.36,0 -50.07,12.5 -64.86,36.9102 l 17.35,9.6406 c 10.91,-17.9883 29.56,-26.9883 47.51,-26.9883 36.6,0 60.7,18.6406 60.7,76.4176 v 9.641 c -11.23,-20.211 -34.7,-32.738 -59.73,-32.738 -41.76,0 -76.1,33.367 -76.1,78.976 0,45.582 34.04,78.66 76.1,78.66 25.36,0 48.5,-12.527 59.73,-32.75 z m 0,-75.457 c 0,36.297 -28.25,59.738 -58.11,59.738 -31.48,0 -57.17,-25.699 -57.17,-58.769 0,-33.379 25.69,-59.711 57.17,-59.711 31.15,0 58.11,24.07 58.11,58.742"
         style="fill:#1e2227;fill-opacity:1;fill-rule:nonzero;stroke:none"
         id="path56" />
      <path
         d="m 2352.2,322.012 c 0,8.679 7.41,14.758 15.73,14.758 9,0 16.06,-6.079 16.06,-14.758 0,-8.34 -7.06,-14.43 -16.06,-14.43 -8.32,0 -15.73,6.09 -15.73,14.43 m 5.46,-55.223 h 20.54 v -149.93 h -20.54 v 149.93"
         style="fill:#1e2227;fill-opacity:1;fill-rule:nonzero;stroke:none"
         id="path58" />
      <path
         d="m 2563.15,204.18 v -87.328 h -20.55 v 86.367 c 0,28.89 -18.29,47.203 -42.39,47.203 -24.07,0 -49.43,-14.133 -50.07,-50.402 v -83.168 h -20.57 v 149.929 h 20.57 V 239.82 c 8.98,21.512 33.36,30.821 52,30.821 36.3,0 61.01,-25.039 61.01,-66.461"
         style="fill:#1e2227;fill-opacity:1;fill-rule:nonzero;stroke:none"
         id="path60" />
      <path
         d="m 2751.87,183.309 h -129.06 c 3.5,-32.11 26,-50.727 56.16,-50.727 20.57,0 38.86,9.969 48.8,26.328 l 17.68,-7.711 C 2732.29,127.129 2706.62,113 2678.34,113 c -42.39,0 -76.1,31.781 -76.1,79.32 0,47.5 33.71,78.321 76.1,78.321 42.71,0 74.16,-30.821 74.16,-78.321 0,-2.898 -0.3,-6.121 -0.63,-9.011 m -19.91,17.652 c -2.89,31.148 -24.4,50.098 -53.62,50.098 -29.53,0 -51.04,-17.977 -55.22,-50.098 h 108.84"
         style="fill:#1e2227;fill-opacity:1;fill-rule:nonzero;stroke:none"
         id="path62" />
      <path
         d="m 2932.26,183.309 h -129.08 c 3.52,-32.11 26.02,-50.727 56.18,-50.727 20.57,0 38.86,9.969 48.83,26.328 l 17.65,-7.711 C 2912.68,127.129 2886.98,113 2858.73,113 c -42.39,0 -76.1,31.781 -76.1,79.32 0,47.5 33.71,78.321 76.1,78.321 42.71,0 74.16,-30.821 74.16,-78.321 0,-2.898 -0.3,-6.121 -0.63,-9.011 m -19.91,17.652 c -2.89,31.148 -24.4,50.098 -53.62,50.098 -29.53,0 -51.04,-17.977 -55.22,-50.098 h 108.84"
         style="fill:#1e2227;fill-opacity:1;fill-rule:nonzero;stroke:none"
         id="path64" />
      <path
         d="m 3064.48,266.148 -3.86,-19.578 c -7.71,3.192 -14.76,4.149 -20.21,4.149 -35.64,0 -46.55,-40.43 -46.55,-77.36 v -56.507 h -20.87 v 149.929 h 20.87 V 230.18 c 7.39,25.359 23.41,40.461 46.88,40.461 8.32,0 17.96,-1.602 23.74,-4.493"
         style="fill:#1e2227;fill-opacity:1;fill-rule:nonzero;stroke:none"
         id="path66" />
      <path
         d="m 3087.56,322.012 c 0,8.679 7.38,14.758 15.72,14.758 8.98,0 16.06,-6.079 16.06,-14.758 0,-8.34 -7.08,-14.43 -16.06,-14.43 -8.34,0 -15.72,6.09 -15.72,14.43 m 5.45,-55.223 h 20.55 v -149.93 h -20.55 v 149.93"
         style="fill:#1e2227;fill-opacity:1;fill-rule:nonzero;stroke:none"
         id="path68" />
      <path
         d="m 3298.47,204.18 v -87.328 h -20.54 v 86.367 c 0,28.89 -18.29,47.203 -42.39,47.203 -24.07,0 -49.44,-14.133 -50.07,-50.402 v -83.168 h -20.57 v 149.929 h 20.57 V 239.82 c 8.98,21.512 33.35,30.821 52,30.821 36.3,0 61,-25.039 61,-66.461"
         style="fill:#1e2227;fill-opacity:1;fill-rule:nonzero;stroke:none"
         id="path70" />
      <path
         d="m 3473.08,266.789 h 20.54 V 137.41 c 0,-72.5702 -32.44,-97.2811 -81.24,-97.2811 -25.37,0 -50.07,12.5 -64.86,36.9102 l 17.35,9.6406 c 10.93,-17.9883 29.55,-26.9883 47.51,-26.9883 36.6,0 60.7,18.6406 60.7,76.4176 v 9.641 c -11.24,-20.211 -34.7,-32.738 -59.74,-32.738 -41.75,0 -76.1,33.367 -76.1,78.976 0,45.582 34.05,78.66 76.1,78.66 25.37,0 48.5,-12.527 59.74,-32.75 z m 0,-75.457 c 0,36.297 -28.26,59.738 -58.11,59.738 -31.48,0 -57.15,-25.699 -57.15,-58.769 0,-33.379 25.67,-59.711 57.15,-59.711 31.14,0 58.11,24.07 58.11,58.742"
         style="fill:#1e2227;fill-opacity:1;fill-rule:nonzero;stroke:none"
         id="path72" />
      <path
         d="m 3627.84,223.129 c 0,20.351 16.77,35.223 37.15,35.223 20.38,0 37.15,-14.872 37.15,-35.223 0,-20.379 -16.77,-35.231 -37.15,-35.231 -20.38,0 -37.15,14.852 -37.15,35.231"
         style="fill:#1e2227;fill-opacity:1;fill-rule:nonzero;stroke:none"
         id="path74" />
      <path
         d="m 3865.03,136.75 h 94.08 v -19.91 h -115.26 v 221.242 h 21.18 V 136.75"
         style="fill:#1e2227;fill-opacity:1;fill-rule:nonzero;stroke:none"
         id="path76" />
      <path
         d="m 3986.68,322.012 c 0,8.679 7.38,14.758 15.73,14.758 8.97,0 16.05,-6.079 16.05,-14.758 0,-8.34 -7.08,-14.43 -16.05,-14.43 -8.35,0 -15.73,6.09 -15.73,14.43 m 5.45,-55.223 h 20.55 v -149.93 h -20.55 v 149.93"
         style="fill:#1e2227;fill-opacity:1;fill-rule:nonzero;stroke:none"
         id="path78" />
      <path
         d="m 4132.1,328.762 c -28.26,0 -36.27,-18.953 -36.27,-43.024 V 266.789 H 4134 v -17.68 h -38.17 v -132.25 h -20.55 v 132.25 h -29.55 v 17.68 h 29.55 v 16.691 c 0,37.571 14.77,64.86 53.93,64.86 h 14.13 v -19.578 h -11.24"
         style="fill:#1e2227;fill-opacity:1;fill-rule:nonzero;stroke:none"
         id="path80" />
      <path
         d="m 4300.63,183.309 h -129.06 c 3.5,-32.11 26,-50.727 56.19,-50.727 20.54,0 38.83,9.969 48.77,26.328 l 17.68,-7.711 C 4281.05,127.129 4255.35,113 4227.1,113 c -42.39,0 -76.1,31.781 -76.1,79.32 0,47.5 33.71,78.321 76.1,78.321 42.71,0 74.16,-30.821 74.16,-78.321 0,-2.898 -0.3,-6.121 -0.63,-9.011 m -19.91,17.652 c -2.89,31.148 -24.4,50.098 -53.62,50.098 -29.53,0 -51.04,-17.977 -55.22,-50.098 h 108.84"
         style="fill:#1e2227;fill-opacity:1;fill-rule:nonzero;stroke:none"
         id="path82" />
      <path
         d="m 4417.41,175.602 h 20.88 c 1.9,-21.813 22.11,-42.692 53.26,-42.692 35.34,0 52.66,23.11 52.66,43.988 0,24.071 -21.18,35.641 -43.02,41.094 l -29.85,7.078 c -45.92,10.899 -52.33,37.539 -52.33,55.192 0,36.597 33.71,61.66 70.31,61.66 37.57,0 67.09,-23.133 68.39,-60.043 h -20.88 c -1.27,24.41 -21.81,40.133 -48.14,40.133 -25.04,0 -48.5,-17.024 -48.5,-41.75 0,-10.274 3.19,-27.602 35.97,-35.641 l 30.15,-7.68 c 35.01,-8.679 59.11,-26.972 59.11,-59.082 0,-31.148 -25.7,-64.859 -73.87,-64.859 -43.65,0 -72.54,30.52 -74.14,62.602"
         style="fill:#1e2227;fill-opacity:1;fill-rule:nonzero;stroke:none"
         id="path84" />
      <path
         d="m 4595.86,191.98 c 0,47.508 36.61,78.661 79.65,78.661 21.15,0 40.43,-8.039 53.6,-20.539 l -12.51,-14.133 c -10.27,9.312 -24.76,15.09 -40.48,15.09 -33.05,0 -59.71,-23.77 -59.71,-59.079 0,-35 26.66,-59.398 59.71,-59.398 15.72,0 29.88,5.777 40.48,15.09 l 12.84,-14.133 C 4715.94,120.711 4696.66,113 4675.51,113 c -43.04,0 -79.65,31.449 -79.65,78.98"
         style="fill:#1e2227;fill-opacity:1;fill-rule:nonzero;stroke:none"
         id="path86" />
      <path
         d="m 4761.49,322.012 c 0,8.679 7.38,14.758 15.72,14.758 8.98,0 16.06,-6.079 16.06,-14.758 0,-8.34 -7.08,-14.43 -16.06,-14.43 -8.34,0 -15.72,6.09 -15.72,14.43 m 5.45,-55.223 h 20.55 v -149.93 h -20.55 v 149.93"
         style="fill:#1e2227;fill-opacity:1;fill-rule:nonzero;stroke:none"
         id="path88" />
      <path
         d="m 4978.51,183.309 h -129.09 c 3.53,-32.11 26.03,-50.727 56.19,-50.727 20.57,0 38.86,9.969 48.8,26.328 l 17.68,-7.711 C 4958.93,127.129 4933.23,113 4904.97,113 c -42.38,0 -76.09,31.781 -76.09,79.32 0,47.5 33.71,78.321 76.09,78.321 42.72,0 74.17,-30.821 74.17,-78.321 0,-2.898 -0.3,-6.121 -0.63,-9.011 m -19.91,17.652 c -2.9,31.148 -24.41,50.098 -53.63,50.098 -29.52,0 -51.03,-17.977 -55.22,-50.098 h 108.85"
         style="fill:#1e2227;fill-opacity:1;fill-rule:nonzero;stroke:none"
         id="path90" />
      <path
         d="m 5152.79,204.18 v -87.328 h -20.54 v 86.367 c 0,28.89 -18.29,47.203 -42.39,47.203 -24.07,0 -49.44,-14.133 -50.1,-50.402 v -83.168 h -20.54 v 149.929 h 20.54 V 239.82 c 9.01,21.512 33.41,30.821 52.03,30.821 36.3,0 61,-25.039 61,-66.461"
         style="fill:#1e2227;fill-opacity:1;fill-rule:nonzero;stroke:none"
         id="path92" />
      <path
         d="m 5191.28,191.98 c 0,47.508 36.6,78.661 79.65,78.661 21.15,0 40.43,-8.039 53.6,-20.539 l -12.51,-14.133 c -10.27,9.312 -24.76,15.09 -40.48,15.09 -33.05,0 -59.71,-23.77 -59.71,-59.079 0,-35 26.66,-59.398 59.71,-59.398 15.72,0 29.88,5.777 40.48,15.09 l 12.83,-14.133 C 5311.36,120.711 5292.08,113 5270.93,113 c -43.05,0 -79.65,31.449 -79.65,78.98"
         style="fill:#1e2227;fill-opacity:1;fill-rule:nonzero;stroke:none"
         id="path94" />
      <path
         d="M 5497.86,183.309 H 5368.8 c 3.5,-32.11 26,-50.727 56.19,-50.727 20.54,0 38.83,9.969 48.77,26.328 l 17.69,-7.711 C 5478.28,127.129 5452.59,113 5424.33,113 c -42.39,0 -76.1,31.781 -76.1,79.32 0,47.5 33.71,78.321 76.1,78.321 42.71,0 74.17,-30.821 74.17,-78.321 0,-2.898 -0.31,-6.121 -0.64,-9.011 m -19.91,17.652 c -2.89,31.148 -24.4,50.098 -53.62,50.098 -29.53,0 -51.04,-17.977 -55.22,-50.098 h 108.84"
         style="fill:#1e2227;fill-opacity:1;fill-rule:nonzero;stroke:none"
         id="path96" />
      <path
         d="m 5526.37,156.66 h 18.98 c 2.23,-12.531 13.79,-25.371 35.64,-25.371 21.5,0 34.64,11.242 34.64,26.332 0,12.199 -8.32,20.219 -23.74,24.098 l -21.51,5.121 c -21.21,5.148 -38.23,16.058 -38.23,41.09 0,24.41 20.88,42.718 49.47,42.718 25.03,0 48.14,-13.796 49.1,-40.789 h -19.91 c -0.96,13.5 -14.1,22.481 -28.86,22.481 -17.35,0 -29.25,-10.61 -29.25,-24.711 0,-14.149 12.23,-20.238 23.13,-22.797 l 22.15,-5.461 c 29.22,-7.07 38.2,-24.73 38.2,-42.082 0,-26.629 -24.07,-44.277 -55.19,-44.277 -26.03,0 -52.03,15.09 -54.62,43.648"
         style="fill:#1e2227;fill-opacity:1;fill-rule:nonzero;stroke:none"
         id="path98" />
    </g>
  </g>
</svg>
