<?xml version="1.0" encoding="UTF-8"?>
<svg xmlns="http://www.w3.org/2000/svg" width="19" height="19" viewBox="0 0 19 19" fill="none">
  <path fill-rule="evenodd" clip-rule="evenodd" d="M12.5403 0.0687866H5.67684C4.12043 0.0687866 2.71156 0.700238 1.6914 1.7204C0.671247 2.74055 0.0397949 4.14942 0.0397949 5.70584V12.5693C0.0397949 14.1257 0.671247 15.5346 1.6914 16.5547C2.71156 17.5749 4.12201 18.2063 5.67684 18.2063H12.5403C14.0967 18.2063 15.5072 17.5749 16.5257 16.5547C17.5459 15.5346 18.1774 14.1241 18.1774 12.5693V5.70584C18.1774 4.14942 17.5459 2.73897 16.5257 1.7204C15.5056 0.700238 14.0967 0.0687866 12.5403 0.0687866ZM14.5997 4.33981C14.5997 3.95745 14.2887 3.64648 13.9063 3.64648C13.524 3.64648 13.213 3.95745 13.213 4.33981C13.213 4.72217 13.524 5.03313 13.9063 5.03313C14.2887 5.03313 14.5997 4.72217 14.5997 4.33981ZM9.10857 4.64443C7.86788 4.64443 6.7446 5.14737 5.93069 5.96127C5.11837 6.77518 4.61385 7.89846 4.61385 9.13915C4.61385 10.3798 5.11679 11.5031 5.93069 12.317C6.7446 13.1309 7.86788 13.6339 9.10857 13.6339C10.3493 13.6339 11.4725 13.1309 12.2865 12.317C13.1004 11.5031 13.6033 10.3798 13.6033 9.13915C13.6033 7.89846 13.1004 6.77518 12.2865 5.96127C11.4741 5.14737 10.3493 4.64443 9.10857 4.64443ZM9.10857 12.0806C8.29784 12.0806 7.56326 11.7506 7.03018 11.2175C6.49709 10.6845 6.16709 9.9483 6.16709 9.13915C6.16709 8.33001 6.49709 7.59226 7.03018 7.06076C7.56326 6.52767 8.29943 6.19767 9.11016 6.19767C9.92089 6.19767 10.6571 6.52767 11.1886 7.06076C11.7216 7.59226 12.0516 8.32842 12.0516 9.13915C12.0516 9.94988 11.7216 10.6845 11.1886 11.2175C10.6555 11.7506 9.91931 12.0806 9.11016 12.0806H9.10857ZM16.6257 12.5709C16.6257 13.6973 16.1672 14.7191 15.4278 15.4584C14.6885 16.1978 13.6668 16.6563 12.5403 16.6563H5.67684C4.55039 16.6563 3.52864 16.1978 2.78931 15.4584C2.04997 14.7191 1.59145 13.6973 1.59145 12.5709V5.70584C1.59145 4.57938 2.04997 3.55763 2.78931 2.8183C3.52864 2.07896 4.55039 1.62044 5.67684 1.62044H12.5403C13.6668 1.62044 14.6885 2.07896 15.4278 2.8183C16.1672 3.55763 16.6257 4.57938 16.6257 5.70584V12.5693V12.5709Z" fill="#FEFEFE"></path>
</svg>
