<?xml version="1.0" encoding="UTF-8"?>
<svg xmlns="http://www.w3.org/2000/svg" width="22" height="18" viewBox="0 0 22 18" fill="none">
  <path d="M0.703369 15.2949C2.61981 16.5062 4.89193 17.2062 7.32863 17.2062C14.1733 17.2062 19.7209 11.6767 19.7209 4.85821C19.7209 4.68718 19.7174 4.51967 19.7103 4.3504C19.958 4.15644 21.4887 2.93275 21.8639 2.14811C21.8639 2.14811 20.6198 2.66297 19.4042 2.78464C19.4024 2.78464 19.3988 2.78464 19.3971 2.78464C19.3971 2.78464 19.3988 2.78463 19.4042 2.78111C19.5156 2.70705 21.0835 1.64382 21.2958 0.376048C21.2958 0.376048 20.4163 0.843302 19.1847 1.25238C18.9812 1.31938 18.7671 1.38638 18.5477 1.44809C17.7549 0.603499 16.6259 0.0762939 15.3731 0.0762939C12.97 0.0762939 11.0235 2.01586 11.0235 4.40682C11.0235 4.7436 11.0624 5.07333 11.1367 5.38895C10.8005 5.37485 5.69001 5.0892 2.21104 0.892677C2.21104 0.892677 0.133569 3.71915 3.44974 6.62674C3.44974 6.62674 2.44108 6.58619 1.57223 6.06956C1.57223 6.06956 1.25194 9.49379 5.00873 10.3701C5.00873 10.3701 4.26905 10.6487 3.09052 10.4495C3.09052 10.4495 3.75056 13.2178 7.08797 13.4752C7.08797 13.4752 4.44954 15.8503 0.703369 15.2931H0.703369V15.2949Z" fill="white"></path>
</svg>
